<?xml version="1.0" encoding="UTF-8"?>
<!DOCTYPE svg PUBLIC "-//W3C//DTD SVG 1.1//EN" "http://www.w3.org/Graphics/SVG/1.1/DTD/svg11.dtd">
<svg fill="#90A5C2" width="24px" height="24px" viewBox="0 0 24 24" version="1.1" xmlns="http://www.w3.org/2000/svg" xmlns:xlink="http://www.w3.org/1999/xlink">
        <path d="M5.9209,6 C5.4129,6 4.9999,6.413 4.9999,6.921 L4.9999,14.079 C4.9999,14.587 5.4129,15 5.9209,15 L9.9999,15 C10.5529,15 10.9999,15.448 10.9999,16 L10.9999,17.933 L14.4309,15.216 C14.6079,15.076 14.8259,15 15.0519,15 L18.0789,15 C18.5869,15 18.9999,14.587 18.9999,14.079 L18.9999,6.921 C18.9999,6.413 18.5869,6 18.0789,6 L5.9209,6 Z M9.9999,21 C9.8519,21 9.7029,20.967 9.5649,20.9 C9.2199,20.733 8.9999,20.383 8.9999,20 L8.9999,17 L5.9209,17 C4.3109,17 2.9999,15.689 2.9999,14.079 L2.9999,6.921 C2.9999,5.311 4.3109,4 5.9209,4 L18.0789,4 C19.6899,4 20.9999,5.311 20.9999,6.921 L20.9999,14.079 C20.9999,15.689 19.6899,17 18.0789,17 L15.3999,17 L10.6209,20.784 C10.4409,20.927 10.2209,21 9.9999,21 Z M16,10 L8,10 C7.447,10 7,9.552 7,9 C7,8.448 7.447,8 8,8 L16,8 C16.553,8 17,8.448 17,9 C17,9.552 16.553,10 16,10 Z M12.4082,13 L8.0002,13 C7.4472,13 7.0002,12.552 7.0002,12 C7.0002,11.448 7.4472,11 8.0002,11 L12.4082,11 C12.9612,11 13.4082,11.448 13.4082,12 C13.4082,12.552 12.9612,13 12.4082,13 Z" id="path-1"></path>
</svg>