<?xml version="1.0" encoding="UTF-8"?>
<svg fill="#FFD338" width="20px" height="20px" viewBox="2 2 20 20" version="1.1" xmlns="http://www.w3.org/2000/svg"
     xmlns:xlink="http://www.w3.org/1999/xlink">
    <path d="M17.657,17.657 C20.781,14.533 20.781,9.468 17.657,6.344 C16.095,4.782 14.047,4 12,4 C9.953,4 7.905,4.782 6.343,6.344 C3.219,9.468 3.219,14.533 6.343,17.657 C7.905,19.219 9.953,20 12,20 C14.047,20 16.095,19.219 17.657,17.657 Z M19.071,4.929 C20.96,6.818 22,9.329 22,12 C22,14.671 20.96,17.182 19.071,19.072 C17.182,20.96 14.671,22 12,22 C9.329,22 6.817,20.96 4.928,19.072 C3.04,17.182 2,14.671 2,12 C2,9.329 3.04,6.818 4.928,4.929 C6.817,3.04 9.329,2 12,2 C14.671,2 17.182,3.04 19.071,4.929 Z M14.9402,9.3582 C15.3312,9.7492 15.3312,10.3822 14.9402,10.7722 L13.4142,12.2982 L14.9402,13.8242 C15.3312,14.2142 15.3312,14.8472 14.9402,15.2382 C14.7452,15.4332 14.4892,15.5312 14.2332,15.5312 C13.9772,15.5312 13.7212,15.4332 13.5262,15.2382 L12.0002,13.7122 L10.4732,15.2382 C10.2782,15.4332 10.0222,15.5312 9.7662,15.5312 C9.5102,15.5312 9.2542,15.4332 9.0592,15.2382 C8.6692,14.8472 8.6692,14.2142 9.0592,13.8242 L10.5862,12.2982 L9.0592,10.7722 C8.6692,10.3822 8.6692,9.7492 9.0592,9.3582 C9.4502,8.9672 10.0832,8.9672 10.4732,9.3582 L12.0002,10.8842 L13.5262,9.3582 C13.9172,8.9672 14.5492,8.9672 14.9402,9.3582 Z"/>
</svg>