<?xml version="1.0" encoding="UTF-8"?>
<svg fill="#4C6180" width="24px" height="24px" viewBox="291.5 347.5 17 17" version="1.1" xmlns="http://www.w3.org/2000/svg"
     xmlns:xlink="http://www.w3.org/1999/xlink">
    <path d="M301.4141,356 L304.7071,352.707 C305.0981,352.316 305.0981,351.684 304.7071,351.293 C304.3161,350.902 303.6841,350.902 303.2931,351.293 L300.0001,354.586 L296.7071,351.293 C296.3161,350.902 295.6841,350.902 295.2931,351.293 C294.9021,351.684 294.9021,352.316 295.2931,352.707 L298.5861,356 L295.2931,359.293 C294.9021,359.684 294.9021,360.316 295.2931,360.707 C295.4881,360.902 295.7441,361 296.0001,361 C296.2561,361 296.5121,360.902 296.7071,360.707 L300.0001,357.414 L303.2931,360.707 C303.4881,360.902 303.7441,361 304.0001,361 C304.2561,361 304.5121,360.902 304.7071,360.707 C305.0981,360.316 305.0981,359.684 304.7071,359.293 L301.4141,356 Z"/>
</svg>