<?xml version="1.0" encoding="UTF-8"?>
<svg width="20px" height="10px" viewBox="0 0 20 10" version="1.1" xmlns="http://www.w3.org/2000/svg"
     xmlns:xlink="http://www.w3.org/1999/xlink">
    <g id="Mobile" stroke="none" stroke-width="1" fill="none" fill-rule="evenodd">
        <g id="9.-Send" transform="translate(-171.000000, -403.000000)" fill="#FFFFFF">
            <path d="M176.70701,408.706971 L172.707189,412.706762 C172.316203,413.097746 171.684226,413.097746 171.29324,412.706762 C170.902253,412.315779 170.902253,411.683805 171.29324,411.292821 L174.586086,408 L171.29324,404.707179 C170.902253,404.316195 170.902253,403.684221 171.29324,403.293238 C171.684226,402.902254 172.316203,402.902254 172.707189,403.293238 L176.70701,407.293029 C176.902003,407.488021 177,407.744011 177,408 C177,408.255989 176.902003,408.511979 176.70701,408.706971 Z M183.70701,408.706971 L179.707189,412.706762 C179.316203,413.097746 178.684226,413.097746 178.29324,412.706762 C177.902253,412.315779 177.902253,411.683805 178.29324,411.292821 L181.586086,408 L178.29324,404.707179 C177.902253,404.316195 177.902253,403.684221 178.29324,403.293238 C178.684226,402.902254 179.316203,402.902254 179.707189,403.293238 L183.70701,407.293029 C183.902003,407.488021 184,407.744011 184,408 C184,408.255989 183.902003,408.511979 183.70701,408.706971 Z M190.70701,408.706971 L186.707189,412.706762 C186.316203,413.097746 185.684226,413.097746 185.29324,412.706762 C184.902253,412.315779 184.902253,411.683805 185.29324,411.292821 L188.586086,408 L185.29324,404.707179 C184.902253,404.316195 184.902253,403.684221 185.29324,403.293238 C185.684226,402.902254 186.316203,402.902254 186.707189,403.293238 L190.70701,407.293029 C190.902003,407.488021 191,407.744011 191,408 C191,408.255989 190.902003,408.511979 190.70701,408.706971 Z"/>
        </g>
    </g>
</svg>