<?xml version="1.0" encoding="UTF-8"?>
<svg width="16px" height="16px" viewBox="4 4 16 16" version="1.1" xmlns="http://www.w3.org/2000/svg" fill="#4C6180"
     xmlns:xlink="http://www.w3.org/1999/xlink">
    <path d="M8.32596929,9.97403071 C8.51796929,9.79803071 8.75996929,9.71303071 8.99996929,9.71303071 C9.27096929,9.71303071 9.54196929,9.82203071 9.73896929,10.0380307 L10.9999693,11.4210307 L10.9999693,5.00003071 C10.9999693,4.44703071 11.4479693,4.00003071 11.9999693,4.00003071 C12.5519693,4.00003071 12.9999693,4.44703071 12.9999693,5.00003071 L12.9999693,11.4210307 L14.2609693,10.0380307 C14.6339693,9.63003071 15.2659693,9.60203071 15.6739693,9.97403071 C16.0819693,10.3460307 16.1109693,10.9790307 15.7389693,11.3870307 L12.7469693,14.6640307 C12.7359693,14.6760307 12.7259693,14.6880307 12.7139693,14.6990307 C12.6819693,14.7330307 12.6469693,14.7630307 12.6099693,14.7920307 C12.4549693,14.9120307 12.2729693,14.9800307 12.0879693,14.9960307 C12.0579693,14.9990307 12.0289693,15.0000307 11.9999693,15.0000307 C11.9419693,15.0000307 11.8849693,14.9950307 11.8279693,14.9840307 C11.6369693,14.9510307 11.4539693,14.8630307 11.3059693,14.7190307 C11.2889693,14.7030307 11.2729693,14.6870307 11.2569693,14.6700307 L8.26096929,11.3870307 C8.08596929,11.1950307 7.99996929,10.9530307 7.99996929,10.7130307 C7.99996929,10.4420307 8.10996929,10.1710307 8.32596929,9.97403071 Z M20,16.9963099 C20,18.6533805 18.65,20 16.991,20 L7.009,20 C5.35,20 4,18.6533805 4,16.9963099 L4,13.0213368 C4,11.7236549 6,11.7236549 6,13.0213368 L6,16.9963099 C6,17.552327 6.453,18.0035293 7.009,18.0035293 L16.991,18.0035293 C17.547,18.0035293 18,17.552327 18,16.9963099 L18,13.0213368 C18,11.6595544 20,11.6595544 20,13.0213368 L20,16.9963099 Z"/>
</svg>