<?xml version="1.0" encoding="UTF-8"?>
<!DOCTYPE svg PUBLIC "-//W3C//DTD SVG 1.1//EN" "http://www.w3.org/Graphics/SVG/1.1/DTD/svg11.dtd">
<svg fill="#FFFFFF" width="24px" height="24px" viewBox="21 11 18 18" version="1.1" xmlns="http://www.w3.org/2000/svg"
     xmlns:xlink="http://www.w3.org/1999/xlink">
    <path d="M36.5742,11 L23.4252,11 C22.086,11 21,12.0866 21,13.4258 L21,26.5748 C21,27.914 22.086,29 23.4252,29 L29.9106,29 L29.9214,22.568 L28.2504,22.568 C28.0332,22.568 27.8568,22.3922 27.8562,22.175 L27.8484,20.102 C27.8472,19.8836 28.0242,19.706 28.2426,19.706 L29.9106,19.706 L29.9106,17.7026 C29.9106,15.3776 31.3302,14.1122 33.4044,14.1122 L35.106,14.1122 C35.3244,14.1122 35.5002,14.288 35.5002,14.5064 L35.5002,16.2542 C35.5002,16.472 35.3244,16.6484 35.1066,16.6484 L34.062,16.649 C32.934,16.649 32.7156,17.1854 32.7156,17.9714 L32.7156,19.706 L35.1942,19.706 C35.43,19.706 35.6136,19.9124 35.586,20.1464 L35.34,22.22 C35.3166,22.4186 35.1486,22.568 34.9488,22.568 L32.727,22.568 L32.7156,29 L36.5742,29 C37.914,29 39,27.914 39,26.5748 L39,13.4258 C39,12.0866 37.914,11 36.5742,11"/>
</svg>