<?xml version="1.0" encoding="UTF-8"?>
<!DOCTYPE svg PUBLIC "-//W3C//DTD SVG 1.1//EN" "http://www.w3.org/Graphics/SVG/1.1/DTD/svg11.dtd">
<svg fill="#FFFFFF" width="24px" height="24px" viewBox="0 0 20 20" version="1.1" xmlns="http://www.w3.org/2000/svg"
     xmlns:xlink="http://www.w3.org/1999/xlink">
    <path d="M1.11845002,5.40105005 C2.78245006,2.19205002 6.13495015,4.99999985e-05 9.99995024,4.99999985e-05 C12.4264503,4.99999985e-05 14.6509504,0.864050008 16.3829504,2.30205002 L13.1434503,4.95455005 C12.2319503,4.38455004 11.1544503,4.05555004 9.99995024,4.05555004 C7.39345577,4.05555004 5.17845963,5.73354285 4.37645527,8.06803505 C4.16855,8.67374999 4.05555,9.32374998 4.05555,9.99974997 C4.05555,10.73425 4.18855,11.4372499 4.43255,12.0862499 C5.27705017,14.3402244 7.45100886,15.9446506 9.99995032,15.9446506 C11.0954125,15.9446506 12.1218795,15.6481711 13.0028591,15.1312042 C14.1718504,14.4456501 15.0858504,13.3721501 15.5668504,12.0876501 L10.2198505,12.0876501 L10.2198505,8.13165002 L15.6453504,8.13165002 L19.8253503,8.13165002 C19.9398503,8.73665003 19.9998503,9.36165003 19.9998503,9.99965004 C19.9998503,10.71615 19.9248503,11.4141501 19.7813503,12.0876501 C19.2943503,14.3801501 18.0228504,16.3816501 16.2603504,17.7981501 C14.5464761,19.1758302 12.3696922,19.9996506 9.99995032,19.9996506 C6.19199415,19.9996506 2.88102651,17.8711998 1.1920085,14.7392591 C0.431544055,13.3282277 4.99999987e-05,11.7147381 4.99999987e-05,9.99974997 C4.99999987e-05,8.34175 0.40305,6.77825003 1.11805,5.40125006 Z"></path>
</svg>