<?xml version="1.0" encoding="UTF-8"?>
<svg width="102px" height="103px" viewBox="0 -5 70 70" version="1.1" xmlns="http://www.w3.org/2000/svg"
     xmlns:xlink="http://www.w3.org/1999/xlink">
    <polygon id="path-3"
             points="0.0664958445 0.142489008 6.86729223 0.142489008 6.86729223 13.744111 0.0664958445 13.744111"/>
    <polygon id="path-5"
             points="0.0664958445 0.129309651 6.86729223 0.129309651 6.86729223 8.63028686 0.0664958445 8.63028686"/>
    <polygon id="path-7" points="0 0.142342895 5.10063016 0.142342895 5.10063016 13.744111 0 13.744111"/>
    <path d="M15.3019489,45.9058906 L20.4025937,45.9058906 C21.4227519,45.9058906 22.1027599,45.2258826 22.1027599,44.2057244 L22.1027599,40.805392 L15.3019489,40.805392 L15.3019489,45.9058906 Z"
          id="Fill-1" fill="#0261A5"/>
    <path d="M0.0664958445,0.142489008 C3.80697842,0.142489008 6.86730684,3.20281743 6.86730684,6.9433 C6.86730684,10.6837826 3.80697842,13.744111 0.0664958445,13.744111 L0.0664958445,0.142489008 Z"
          id="Fill-3" fill="#99B4CD"/>
    <path d="M0.0664958445,5.22980831 L0.0664958445,8.63028686 C3.80697842,8.63028686 6.86730684,5.56995845 6.86730684,1.82947587 C6.86730684,1.31939678 6.69723177,0.63938874 6.69723177,0.129309651 C5.84714866,3.01941689 3.29689933,5.22980831 0.0664958445,5.22980831"
          id="Fill-6" fill="#6C9ABB"/>
    <path d="M5.10067399,34.0044202 L1.70019544,34.0044202 C0.680183378,34.0044202 2.92225201e-05,33.3244122 2.92225201e-05,32.3041079 L2.92225201e-05,22.1028184 C2.92225201e-05,21.0826602 0.680183378,20.4027983 1.70019544,20.4027983 L5.10067399,20.4027983 L5.10067399,34.0044202 Z"
          id="Fill-9" fill="#D5E3EF"/>
    <path d="M3.40046394,0.142489008 L3.40046394,6.9433 C3.40046394,7.96345818 2.72030979,8.64346622 1.70029772,8.64346622 L-1.46112601e-05,8.64346622 L-1.46112601e-05,12.0439448 C-1.46112601e-05,13.0641029 0.680139544,13.744111 1.70015161,13.744111 L5.10063016,13.744111 L5.10063016,8.64346622 L5.10063016,0.142342895 L3.40046394,0.142342895 L3.40046394,0.142489008 Z"
          id="Fill-11" fill="#B0C4D9"/>
    <path d="M28.9036878,40.8053627 L6.80079638,40.8053627 C5.7806382,40.8053627 5.10063016,40.1252086 5.10063016,39.1050504 L5.10063016,15.3019928 C5.10063016,14.2818346 5.78078432,13.6016804 6.80079638,13.6016804 L28.9036878,13.6016804 C29.923846,13.6016804 30.603854,14.2819807 30.603854,15.3019928 L30.603854,39.1049043 C30.603854,40.1252086 29.923846,40.8053627 28.9036878,40.8053627"
          id="Fill-14" fill="#4C9CD6"/>
    <path d="M28.9036878,13.6017389 L28.9036878,13.6017389 C27.8835296,13.6017389 27.2035216,14.281893 27.2035216,15.3019051 L27.2035216,30.6038394 C27.2035216,31.6241437 26.5233674,32.3040056 25.5033554,32.3040056 L6.80094249,32.3040056 C5.78078432,32.3040056 5.10077627,32.9841598 5.10077627,34.0041718 L5.10077627,39.1048166 C5.10077627,40.1249748 5.78093043,40.8049828 6.80094249,40.8049828 L28.9038339,40.8049828 C29.9239921,40.8049828 30.6040001,40.1248287 30.6040001,39.1048166 L30.6040001,15.3019051 C30.6040001,14.281893 29.923846,13.6017389 28.9036878,13.6017389"
          id="Fill-16" fill="#3689C9"/>
    <path d="M61.2079126,51.0065646 L60.8679086,50.6665606 C52.8767182,42.1654373 41.9954206,37.4047965 30.604044,37.4047965 L30.604044,17.0022174 C41.9955668,17.0022174 52.8767182,12.2415767 60.8679086,3.74045335 L61.2079126,3.40044933 L61.2079126,51.0065646 Z"
          id="Fill-18" fill="#D5E3EF"/>
    <path d="M46.7560322,17.8523444 C46.4160282,17.8523444 46.075878,17.6822693 45.9059491,17.3422653 C45.735874,16.8321862 46.0760241,16.4921822 46.4160282,16.3221071 C50.4965147,14.9619449 54.4070724,12.5816245 57.4674008,9.35122105 C57.8074048,9.01121702 58.3174839,9.01121702 58.6574879,9.35122105 C58.997492,9.69122507 58.997492,10.2013042 58.6574879,10.5413082 C55.4270845,13.9417867 51.3465979,16.6621111 46.9259611,18.0222733 C46.9261072,17.8523444 46.9261072,17.8523444 46.7560322,17.8523444"
          id="Fill-20" fill="#FFFFFF"/>
    <path d="M34.0043618,28.9037462 L34.0043618,20.232694 C34.0043618,18.3623066 32.4741245,17.0022905 30.6038832,17.0022905 L30.6038832,37.4048696 C41.995406,37.4048696 52.8767036,42.1655103 60.8677479,50.6664875 L61.2077519,51.0064916 L61.2077519,39.7851899 C54.4069409,34.344395 46.0757465,32.6442288 37.2346192,32.4742999 C35.364524,32.3040787 34.0043618,30.7739875 34.0043618,28.9037462"
          id="Fill-22" fill="#B0C4D9"/>
    <path d="M64.6083035,54.4071016 L64.6083035,54.4071016 C62.7380622,54.4071016 61.207971,52.8767182 61.207971,51.0066231 L61.207971,3.40050777 C61.207971,1.53026649 62.7380622,2.92225201e-05 64.6083035,2.92225201e-05 C66.4786909,2.92225201e-05 68.008782,1.53026649 68.008782,3.40050777 L68.008782,51.0066231 C68.008782,52.8767182 66.4786909,54.4071016 64.6083035,54.4071016"
          id="Fill-24" fill="#4C9CD6"/>
    <path d="M13.9417721,54.4071016 L13.9417721,54.4071016 C12.751685,54.4071016 11.9014558,53.5570185 11.9014558,52.3667853 L11.9014558,40.8053335 L20.4025791,40.8053335 L15.8120134,53.0467933 C15.4720094,53.8970225 14.7918552,54.4071016 13.9417721,54.4071016"
          id="Fill-26" fill="#3689C9"/>
    <path d="M11.9016165,40.8053627 L11.9016165,42.505529 L12.7516996,42.505529 C14.9619449,42.505529 16.4921822,44.5458453 16.1521782,46.5860155 L14.4520119,54.2370558 C14.962091,54.0669807 15.4721701,53.5567555 15.6420991,53.0468225 L20.4027398,40.8053627 L11.9016165,40.8053627 Z"
          id="Fill-28" fill="#1470B8"/>
    <path d="M64.6083035,-5.68434189e-14 L64.6083035,45.9059491 C64.6083035,47.7761903 63.0780662,49.3064276 61.207971,49.3064276 L61.207971,50.8366649 C61.207971,52.5368311 62.3979121,54.0670684 64.0983705,54.4070724 C66.3086158,54.7470764 68.008782,53.0469102 68.008782,51.0065938 L68.008782,3.40047855 C68.008782,1.53023727 66.4786909,-5.68434189e-14 64.6083035,-5.68434189e-14"
          id="Fill-30" fill="#3689C9"/>
    <path d="M62.908035,28.9037462 L62.908035,28.9037462 C61.8880229,28.9037462 61.2078688,28.2235921 61.2078688,27.20358 L61.2078688,6.80100094 C61.2078688,5.78084276 61.888169,5.10083472 62.908035,5.10083472 C63.9281932,5.10083472 64.6082012,5.78098887 64.6082012,6.80100094 L64.6082012,27.20358 C64.6083473,28.2237382 63.9281932,28.9037462 62.908035,28.9037462"
          id="Fill-32" fill="#70B7E5"/>
    <path d="M66.3085866,49.3064276 L66.3085866,49.3064276 C65.2884284,49.3064276 64.6082743,48.6262735 64.6082743,47.6062614 L64.6082743,35.7046595 C64.6082743,34.6845013 65.2885745,34.0044933 66.3085866,34.0044933 C67.3285987,34.0044933 68.0087528,34.6846475 68.0087528,35.7046595 L68.0087528,47.6062614 C68.0088989,48.6262735 67.3285987,49.3064276 66.3085866,49.3064276"
          id="Fill-34" fill="#1470B8"/>
    <path d="M12.7516704,22.1028768 L22.9529599,22.1028768 C23.463039,22.1028768 23.803043,22.4428808 23.803043,22.9529599 C23.803043,23.463039 23.463039,23.803043 22.9529599,23.803043 L12.7516704,23.803043 C12.2415913,23.803043 11.9015873,23.463039 11.9015873,22.9529599 C11.9015873,22.4428808 12.2415913,22.1028768 12.7516704,22.1028768"
          id="Fill-36" fill="#1470B8"/>
    <path d="M7.65101099,15.3019343 L17.8523005,15.3019343 C18.3623796,15.3019343 18.7023836,15.6419383 18.7023836,16.1520174 C18.7023836,16.6620965 18.3623796,17.0021005 17.8523005,17.0021005 L7.65101099,17.0021005 C7.1409319,17.0021005 6.80092783,16.6620965 6.80092783,16.1520174 C6.80078177,15.6420845 7.1409319,15.3019343 7.65101099,15.3019343"
          id="Fill-38" fill="#70B7E5"/>
    <path d="M12.7516704,25.5033554 L22.9529599,25.5033554 C23.463039,25.5033554 23.803043,25.8433594 23.803043,26.3534385 C23.803043,26.8635176 23.463039,27.2035216 22.9529599,27.2035216 L12.7516704,27.2035216 C12.2415913,27.2035216 11.9015873,26.8635176 11.9015873,26.3534385 C11.9015873,25.8433594 12.2415913,25.5033554 12.7516704,25.5033554"
          id="Fill-40" fill="#1470B8"/>
    <path d="M12.7516704,28.9037462 L22.9529599,28.9037462 C23.463039,28.9037462 23.803043,29.2437503 23.803043,29.7536832 C23.803043,30.2639084 23.463039,30.6039125 22.9529599,30.6039125 L12.7516704,30.6039125 C12.2415913,30.6039125 11.9015873,30.2639084 11.9015873,29.7536832 C11.9015873,29.2438964 12.2415913,28.9037462 12.7516704,28.9037462"
          id="Fill-42" fill="#1470B8"/>
    <path d="M21.2528229,17.0022759 L21.2528229,17.0022759 C20.7427438,17.0022759 20.4027398,16.6622718 20.4027398,16.1521928 C20.4027398,15.6421137 20.7427438,15.3021097 21.2528229,15.3021097 C21.762902,15.3021097 22.102906,15.6421137 22.102906,16.1521928 C22.102906,16.6622718 21.7627559,17.0022759 21.2528229,17.0022759"
          id="Fill-44" fill="#70B7E5"/>
</svg>