<?xml version="1.0" encoding="UTF-8"?>
<svg width="128px" height="128px" viewBox="0 0 128 128" version="1.1" xmlns="http://www.w3.org/2000/svg" xmlns:xlink="http://www.w3.org/1999/xlink">
    <!-- Generator: sketchtool 55 (78076) - https://sketchapp.com -->
    <title>1575A4C5-0B1E-4F6E-8F97-5256353091BE</title>
    <desc>Created with sketchtool.</desc>
    <defs>
        <polygon id="path-1" points="0 0.195800362 100.057197 0.195800362 100.057197 72.1541723 0 72.1541723"></polygon>
        <polygon id="path-3" points="0.149622575 0 90.4970652 0 90.4970652 104.549618 0.149622575 104.549618"></polygon>
    </defs>
    <g id="Mobile" stroke="none" stroke-width="1" fill="none" fill-rule="evenodd">
        <g id="1.1.1.-Log-In---Check-Pass" transform="translate(-116.000000, -56.000000)">
            <g id="ico-pass" transform="translate(116.000000, 56.000000)">
                <circle id="Oval" fill="#3878FF" opacity="0.254134116" cx="63.7111776" cy="63.7111776" r="63.7111776"></circle>
                <g id="Group-27" transform="translate(13.390567, 10.262671)">
                    <g id="Group-3" transform="translate(0.000000, 4.296560)">
                        <mask id="mask-2" fill="white">
                            <use xlink:href="#path-1"></use>
                        </mask>
                        <g id="Clip-2"></g>
                        <path d="M95.0050566,72.1541723 C98.2395476,65.5321509 100.057197,58.0909187 100.057197,50.2243272 C100.057197,22.5945842 77.658413,0.195800362 50.0286701,0.195800362 C22.3987225,0.195800362 -6.13794237e-05,22.5945842 -6.13794237e-05,50.2243272 C-6.13794237e-05,58.0909187 1.81779255,65.5321509 5.05310197,72.1541723 L95.0050566,72.1541723 Z" id="Fill-1" fill="#62EDFE" mask="url(#mask-2)"></path>
                    </g>
                    <g id="Group-6" transform="translate(4.705756, 0.000000)">
                        <mask id="mask-4" fill="white">
                            <use xlink:href="#path-3"></use>
                        </mask>
                        <g id="Clip-5"></g>
                        <path d="M49.2552075,1.05044746 C46.8296973,-0.350230991 43.8161722,-0.350230991 41.3904573,1.05044746 L4.08199765,22.591147 C1.65628283,23.9910071 0.149622575,26.6008601 0.149622575,29.402217 L0.149622575,76.0423951 C8.19544203,92.900663 25.3976393,104.549659 45.3228324,104.549659 C65.2482301,104.549659 82.4502228,92.900663 90.4970652,76.0423951 L90.4970652,29.402217 C90.4970652,26.6008601 88.989382,23.9910071 86.5638718,22.591147 L86.5644856,22.591147 L49.2552075,1.05044746 Z" id="Fill-4" fill="#308DFC" mask="url(#mask-4)"></path>
                    </g>
                    <path d="M27.7893908,21.0563954 C27.350528,21.21189 26.8815892,21.3004809 26.3903492,21.3004809 C24.0755265,21.3004809 22.1993621,19.4243166 22.1993621,17.1103123 C22.1993621,15.9410343 22.6795538,14.884899 23.451707,14.1248171 L8.78775347,22.5910856 C6.36203864,23.9909457 4.85537839,26.6007988 4.85537839,29.4021557 L4.85537839,76.0423337 C9.67468614,86.1404765 17.7812712,94.3683883 27.7893908,99.3450319 L27.7893908,21.0563954 Z" id="Fill-7" fill="#1374FA"></path>
                    <path d="M86.2355123,28.9785763 L50.9452081,8.60408577 C50.3780622,8.27631965 49.6793598,8.27631965 49.1113955,8.60408577 L13.8217051,28.9785763 C13.2537408,29.306547 12.9042873,29.9119527 12.9042873,30.5674849 L12.9042873,88.055044 C22.0590283,98.1842856 35.3000022,104.549536 50.0286087,104.549536 C64.7566014,104.549536 77.9973707,98.1842856 87.1527255,88.055044 L87.1527255,30.5674849 C87.1527255,29.9119527 86.8034766,29.306547 86.2355123,28.9785763" id="Fill-9" fill="#1374FA"></path>
                    <path d="M49.7694034,27.8818487 C50.7066672,27.8683452 51.6263355,27.9297247 52.5253395,28.0580077 L52.5253395,25.5287662 C52.5253395,24.1033314 51.369565,22.9483752 49.9441301,22.9483752 C48.5186953,22.9483752 47.3629208,24.1033314 47.3629208,25.5287662 L47.3629208,28.0852192 C48.1502142,27.9638926 48.9526479,27.89392 49.7694034,27.8818487" id="Fill-11" fill="#02ADCF"></path>
                    <path d="M50.0286292,44.8805732 C46.7949565,44.8805732 44.163416,42.2498511 44.163416,39.0153601 C44.163416,35.7816874 46.7949565,33.1511699 50.0286292,33.1511699 C53.2623018,33.1511699 55.8938423,35.7816874 55.8938423,39.0153601 C55.8938423,42.2498511 53.2623018,44.8805732 50.0286292,44.8805732 M49.7694034,27.4870767 C40.1911443,27.6266126 32.4499714,35.5758618 32.5561578,45.1549392 C32.6478177,53.4910834 38.607146,60.4451675 46.49031,62.072336 C46.9958718,62.1768856 47.3637392,62.6155439 47.3637392,63.1317448 L47.3637392,78.432203 C47.8422941,77.4407207 48.8536224,76.7547033 50.0286292,76.7547033 C51.2028175,76.7547033 52.2151688,77.4407207 52.6935191,78.4313846 L52.6935191,63.1323586 C52.6935191,62.6155439 53.0611819,62.1768856 53.5677667,62.072336 C61.5125147,60.4314594 67.5027373,53.3810096 67.5027373,44.9587297 C67.5027373,35.2378658 59.523003,27.3448811 49.7694034,27.4870767" id="Fill-13" fill="#2DD2E6"></path>
                    <path d="M46.4902281,62.0723155 C46.9959946,62.1768651 47.3636573,62.6155234 47.3636573,63.1317244 L47.3636573,78.4321825 C47.8422122,77.4407002 48.8537451,76.7546829 50.0285473,76.7546829 C51.2029403,76.7546829 52.215087,77.4407002 52.6936419,78.4313641 L52.6936419,63.1325428 C52.6936419,62.614705 53.0613046,62.1768651 53.5676849,62.0723155 C56.5558398,61.4548385 59.2671736,60.0727785 61.4868581,58.1399404 C50.4305825,55.9591295 52.2828089,46.6450066 53.0293873,44.0517259 C52.1510478,44.577543 51.1245792,44.8805527 50.0285473,44.8805527 C46.7948747,44.8805527 44.1635388,42.2498307 44.1635388,39.0155442 C44.1635388,36.9439887 45.2452488,35.1206106 46.871599,34.0771604 C42.4868575,32.7843051 43.8811934,29.2961125 44.2862976,28.4648305 C37.407301,30.8801108 32.471577,37.4943575 32.556076,45.1549188 C32.6477359,53.4912675 38.6070642,60.445147 46.4902281,62.0723155" id="Fill-15" fill="#62EDFE"></path>
                    <path d="M47.0668674,95.1795583 L47.0668674,79.123724 C47.0668674,77.4885762 48.3934813,76.1619622 50.0286292,76.1619622 C51.663777,76.1619622 52.9895725,77.4885762 52.9895725,79.123724 L52.9895725,95.1795583 C52.9895725,96.8157291 51.663777,98.1413201 50.0286292,98.1413201 C48.3934813,98.1413201 47.0668674,96.8157291 47.0668674,95.1795583 Z" id="Fill-17" fill="#36CBDD"></path>
                    <path d="M50.0286292,88.5439924 C48.3934813,88.5439924 47.0668674,87.2184015 47.0668674,85.5822307 L47.0668674,95.1797219 C47.0668674,96.8156882 48.3934813,98.1412791 50.0286292,98.1412791 C51.6645954,98.1412791 52.9903909,96.8156882 52.9903909,95.1797219 L52.9903909,85.5822307 C52.9895725,87.2184015 51.663777,88.5439924 50.0286292,88.5439924" id="Fill-19" fill="#02ADCF"></path>
                    <path d="M60.8831301,95.6088255 L53.3852243,95.6088255 C51.7490535,95.6088255 50.4234625,94.2832345 50.4234625,92.6470637 C50.4234625,91.0119159 51.7490535,89.6863249 53.3852243,89.6863249 L60.8831301,89.6863249 C62.518278,89.6863249 63.8448919,91.0119159 63.8448919,92.6470637 C63.8448919,94.2832345 62.518278,95.6088255 60.8831301,95.6088255" id="Fill-21" fill="#36CBDD"></path>
                    <path d="M57.6279338,85.0462451 L53.3851834,85.0462451 C51.7492172,85.0462451 50.4234216,83.7206541 50.4234216,82.0853017 C50.4234216,80.4493354 51.7492172,79.1237445 53.3851834,79.1237445 L57.6279338,79.1237445 C59.2630816,79.1237445 60.5888772,80.4493354 60.5888772,82.0853017 C60.5888772,83.7206541 59.2630816,85.0462451 57.6279338,85.0462451" id="Fill-23" fill="#62EDFE"></path>
                    <path d="M22.9563546,32.7083992 C22.9563546,28.3772625 24.5245988,24.3953747 27.1201301,21.3004196 L13.8208457,28.9785763 C13.2536999,29.306547 12.904451,29.9119527 12.904451,30.5674849 L12.904451,88.055044 C15.8580288,91.3230891 19.2394213,94.1962599 22.9563546,96.5931264 L22.9563546,32.7083992 Z" id="Fill-25" fill="#0B60DB"></path>
                </g>
            </g>
        </g>
    </g>
</svg>