<?xml version="1.0" encoding="UTF-8"?>
<svg width="28px" height="28px" viewBox="0 0 28 28" version="1.1" xmlns="http://www.w3.org/2000/svg"
     xmlns:xlink="http://www.w3.org/1999/xlink">
    <g id="Mobile" stroke="none" stroke-width="1" fill="#48CFA9" fill-rule="evenodd">
        <g id="6.2.-Profile---Settings" transform="translate(-80.000000, -100.000000)">
            <g id="ico-language" transform="translate(80.000000, 100.000000)">
                <circle id="Oval-Copy-3" cx="14" cy="14" r="14"/>
                <path d="M15.9902,19.6602 C17.0502,18.3602 17.7502,16.7502 17.9402,15.0002 L19.9102,15.0002 C19.5502,17.1702 18.0192,18.9502 15.9902,19.6602 L15.9902,19.6602 Z M8.0902,15.0002 L10.0592,15.0002 C10.2502,16.7502 10.9502,18.3602 12.0102,19.6602 C9.9802,18.9502 8.4502,17.1702 8.0902,15.0002 L8.0902,15.0002 Z M12.0102,8.3402 C10.9502,9.6402 10.2502,11.2502 10.0592,13.0002 L8.0902,13.0002 C8.4502,10.8302 9.9802,9.0502 12.0102,8.3402 L12.0102,8.3402 Z M12.0802,13.0002 C12.2902,11.5002 12.9802,10.1502 14.0002,9.1102 C15.0192,10.1502 15.7102,11.5002 15.9202,13.0002 L12.0802,13.0002 Z M14.0002,18.8902 C12.9802,17.8502 12.2902,16.5002 12.0802,15.0002 L15.9202,15.0002 C15.7102,16.5002 15.0192,17.8502 14.0002,18.8902 L14.0002,18.8902 Z M19.9102,13.0002 L17.9402,13.0002 C17.7502,11.2502 17.0502,9.6402 15.9902,8.3402 C18.0192,9.0502 19.5502,10.8302 19.9102,13.0002 L19.9102,13.0002 Z M18.0102,7.0802 C17.0592,6.5202 15.9692,6.1602 14.8202,6.0402 L14.8092,6.0402 C14.5402,6.0102 14.2692,6.0002 14.0002,6.0002 C13.7302,6.0002 13.4602,6.0102 13.1902,6.0402 L13.1792,6.0402 C12.0302,6.1602 10.9402,6.5202 9.9902,7.0802 C7.5992,8.4602 6.0002,11.0402 6.0002,14.0002 C6.0002,16.9602 7.5992,19.5402 9.9902,20.9202 C10.9402,21.4802 12.0302,21.8402 13.1792,21.9602 L13.1902,21.9602 C13.4602,21.9902 13.7302,22.0002 14.0002,22.0002 C14.2692,22.0002 14.5402,21.9902 14.8092,21.9602 L14.8202,21.9602 C15.9692,21.8402 17.0592,21.4802 18.0102,20.9202 C20.4002,19.5402 22.0002,16.9602 22.0002,14.0002 C22.0002,11.0402 20.4002,8.4602 18.0102,7.0802 L18.0102,7.0802 Z"
                      id="Fill-1" fill="#FFFFFF"/>
            </g>
        </g>
    </g>
</svg>