<?xml version="1.0" encoding="UTF-8"?>
<svg width="20px" height="20px" viewBox="0 0 20 20" version="1.1" xmlns="http://www.w3.org/2000/svg" xmlns:xlink="http://www.w3.org/1999/xlink">
    <!-- Generator: sketchtool 55.1 (78136) - https://sketchapp.com -->
    <title>459205E2-877B-40FC-BACC-D1C12D07799A</title>
    <desc>Created with sketchtool.</desc>
    <defs>
        <path d="M12,11 C13.103,11 14,10.103 14,9 C14,7.897 13.103,7 12,7 C10.897,7 10,7.897 10,9 C10,10.103 10.897,11 12,11 Z M12,5 C14.209,5 16,6.791 16,9 C16,11.209 14.209,13 12,13 C9.791,13 8,11.209 8,9 C8,6.791 9.791,5 12,5 Z M18.4429,16.7324 C19.4459,15.3674 19.9999,13.7054 19.9999,12.0004 C19.9999,7.5884 16.4109,4.0004 11.9999,4.0004 C7.5889,4.0004 3.9999,7.5884 3.9999,12.0004 C3.9999,13.7044 4.5539,15.3654 5.5569,16.7324 C7.1869,15.0504 9.4669,14.0004 11.9999,14.0004 C14.5329,14.0004 16.8139,15.0504 18.4429,16.7324 Z M11.1919,19.9554 C11.4589,19.9824 11.7279,20.0004 11.9999,20.0004 C12.2719,20.0004 12.5409,19.9824 12.8089,19.9554 C12.8899,19.9474 12.9709,19.9344 13.0519,19.9234 C13.2409,19.8984 13.4289,19.8674 13.6149,19.8294 C13.7019,19.8114 13.7879,19.7934 13.8739,19.7724 C14.0679,19.7254 14.2599,19.6704 14.4499,19.6094 C14.5149,19.5884 14.5809,19.5714 14.6449,19.5484 C14.8939,19.4614 15.1379,19.3634 15.3769,19.2524 C15.4269,19.2284 15.4759,19.2004 15.5259,19.1754 C15.7139,19.0834 15.8989,18.9834 16.0799,18.8764 C16.1549,18.8324 16.2289,18.7844 16.3019,18.7374 C16.4589,18.6374 16.6129,18.5304 16.7629,18.4194 C16.8319,18.3684 16.9009,18.3184 16.9679,18.2654 C17.0029,18.2374 17.0349,18.2054 17.0689,18.1774 C15.7679,16.8094 13.9319,16.0004 11.9999,16.0004 C10.0679,16.0004 8.2329,16.8094 6.9309,18.1774 C6.9639,18.2054 6.9959,18.2364 7.0289,18.2634 C7.0989,18.3184 7.1719,18.3704 7.2429,18.4234 C7.3899,18.5324 7.5409,18.6364 7.6939,18.7354 C7.7699,18.7834 7.8459,18.8324 7.9229,18.8784 C8.1009,18.9834 8.2829,19.0814 8.4679,19.1724 C8.5209,19.1984 8.5709,19.2284 8.6249,19.2534 C8.8629,19.3634 9.1069,19.4614 9.3549,19.5484 C9.4199,19.5714 9.4859,19.5884 9.5509,19.6094 C9.7399,19.6704 9.9319,19.7254 10.1249,19.7724 C10.2119,19.7934 10.2979,19.8114 10.3859,19.8294 C10.5709,19.8674 10.7589,19.8984 10.9469,19.9234 C11.0289,19.9344 11.1099,19.9474 11.1919,19.9554 Z M11.9999,2.0004 C17.5199,2.0004 21.9999,6.4804 21.9999,12.0004 C21.9999,14.4194 21.1399,16.6404 19.7099,18.3704 C17.8699,20.5894 15.0999,22.0004 11.9999,22.0004 C8.8999,22.0004 6.1299,20.5894 4.2899,18.3704 C2.8599,16.6404 1.9999,14.4194 1.9999,12.0004 C1.9999,6.4804 6.4799,2.0004 11.9999,2.0004 Z" id="path-1"></path>
    </defs>
    <g id="Mobile" stroke="none" stroke-width="1" fill="none" fill-rule="evenodd">
        <g id="3.1.-Wallet:-Top-up" transform="translate(-314.000000, -602.000000)">
            <g id="UI-/-Components-/-Bottom_bar" transform="translate(0.000000, 584.000000)">
                <g id="UI-/-Bottom-bar-/-Profile-/-Disable" transform="translate(300.000000, 8.000000)">
                    <g id="UI-/-Icons-/-24_profile" transform="translate(12.000000, 8.000000)">
                        <mask id="mask-2" fill="white">
                            <use xlink:href="#path-1"></use>
                        </mask>
                        <use id="Mask" fill="#000000" xlink:href="#path-1"></use>
                        <rect id="Rectangle" fill="#90A5C2" mask="url(#mask-2)" x="0" y="0" width="24" height="24"></rect>
                    </g>
                </g>
            </g>
        </g>
    </g>
</svg>