<?xml version="1.0" encoding="UTF-8"?>
<svg fill="#4C6180" width="16px" height="16px" viewBox="0 0 16 16" version="1.1" xmlns="http://www.w3.org/2000/svg"
     xmlns:xlink="http://www.w3.org/1999/xlink">
    <path d="M8.929,11 L8.929,8.929 L11,8.929 L11,11 L8.929,11 Z M1,0.9996 L7,0.9996 L7,3.0006 L7,5.0006 L7,6.9996 L5,6.9996 L3,6.9996 L1,6.9996 L1,5.0006 L1,3.0006 L1,0.9996 Z M3,5.0006 L5,5.0006 L5,3.0006 L3,3.0006 L3,5.0006 Z M9.0001,0.9996 L15.0001,0.9996 L15.0001,6.9996 L13.0001,6.9996 L11.0001,6.9996 L9.0001,6.9996 L9.0001,5.0006 L9.0001,3.0006 L9.0001,0.9996 Z M11.0001,5.0006 L13.0001,5.0006 L13.0001,3.0006 L11.0001,3.0006 L11.0001,5.0006 Z M4.9996,8.9997 L7.0006,8.9997 L7.0006,11.0007 L7.0006,13.0007 L10.9996,13.0007 L10.9996,14.9997 L7.0006,14.9997 L4.9996,14.9997 L2.9996,14.9997 L0.9996,14.9997 L0.9996,13.0007 L0.9996,11.0007 L0.9996,8.9997 L2.9996,8.9997 L4.9996,8.9997 Z M2.9996,13.0007 L4.9996,13.0007 L4.9996,11.0007 L2.9996,11.0007 L2.9996,13.0007 Z M13,15 L13,9 L15.001,9 L15.001,15 L13,15 Z"/>
</svg>