<?xml version="1.0" encoding="UTF-8"?>
<svg fill="#fff" width="24px" height="24px" viewBox="0 0 24 24" version="1.1" xmlns="http://www.w3.org/2000/svg"
     xmlns:xlink="http://www.w3.org/1999/xlink">
    <path d="M14,16 C17.309,16 20,13.309 20,10 C20,6.691 17.309,4 14,4 C10.691,4 8,6.691 8,10 C8,13.309 10.691,16 14,16 Z M6,10 C6,5.582 9.582,2 14,2 C18.418,2 22,5.582 22,10 C22,14.418 18.418,18 14,18 C12.151,18 10.454,17.367 9.1,16.314 L3.707,21.707 C3.512,21.902 3.256,22 3,22 C2.744,22 2.488,21.902 2.293,21.707 C1.902,21.316 1.902,20.684 2.293,20.293 L7.686,14.9 C6.633,13.545 6,11.849 6,10 Z M18.7959,8.5845 C18.9519,9.1145 18.6499,9.6705 18.1209,9.8275 C18.0259,9.8555 17.9309,9.8685 17.8369,9.8685 C17.4049,9.8685 17.0069,9.5865 16.8779,9.1515 C16.5789,8.1415 15.7929,7.3745 14.7759,7.1025 C14.2429,6.9595 13.9259,6.4105 14.0689,5.8775 C14.2129,5.3445 14.7629,5.0285 15.2939,5.1705 C16.9879,5.6245 18.2979,6.9005 18.7959,8.5845 Z"/>
</svg>