<?xml version="1.0" encoding="UTF-8"?>
<svg fill="#90A5C2" width="33px" height="14px" viewBox="0 5 33 14" version="1.1" xmlns="http://www.w3.org/2000/svg"
     xmlns:xlink="http://www.w3.org/1999/xlink">
    <path d="M23,10 C21.8954305,10 21,10.8954305 21,12 C21,13.1045695 21.8954305,14 23,14 C24.1045695,14 25,13.1045695 25,12 C25,10.8954305 24.1045695,10 23,10 Z M23,8 C25.209139,8 27,9.790861 27,12 C27,14.209139 25.209139,16 23,16 C20.790861,16 19,14.209139 19,12 C19,9.790861 20.790861,8 23,8 Z M30.63,7 L29,7 C29,8.1045695 29.8954305,9 31,9 L31,7.37 C30.9947472,7.16787038 30.8321296,7.00525276 30.63,7 Z M17,7 L15.37,7 C15.1678704,7.00525276 15.0052528,7.16787038 15,7.37 L15,9 C16.1045695,9 17,8.1045695 17,7 Z M31,15 C29.8954305,15 29,15.8954305 29,17 L30.63,17 C30.8321296,16.9947472 30.9947472,16.8321296 31,16.63 L31,15 Z M15,15 L15,16.63 C15.0052528,16.8321296 15.1678704,16.9947472 15.37,17 L17,17 C17,15.8954305 16.1045695,15 15,15 Z M30.63,5 C31.9389149,5 33,6.06108514 33,7.37 L33,16.63 C33,17.9389149 31.9389149,19 30.63,19 L15.37,19 C14.0610851,19 13,17.9389149 13,16.63 L13,7.37 C13,6.06108514 14.0610851,5 15.37,5 L30.63,5 Z M19,17 L27,17 C27,14.790861 28.790861,13 31,13 L31,11 C28.790861,11 27,9.209139 27,7 L19,7 C19,9.209139 17.209139,11 15,11 L15,13 C17.209139,13 19,14.790861 19,17 Z M10,11 C10.5522847,11 11,11.4477153 11,12 C11,12.5522847 10.5522847,13 10,13 L4,13 C3.44771525,13 3,12.5522847 3,12 C3,11.4477153 3.44771525,11 4,11 L10,11 Z M10,7 C10.5522847,7 11,7.44771525 11,8 C11,8.55228475 10.5522847,9 10,9 L1,9 C0.44771525,9 -6.76353751e-17,8.55228475 0,8 C6.76353751e-17,7.44771525 0.44771525,7 1,7 L10,7 Z M10,15 C10.5522847,15 11,15.4477153 11,16 C11,16.5522847 10.5522847,17 10,17 L6,17 C5.44771525,17 5,16.5522847 5,16 C5,15.4477153 5.44771525,15 6,15 L10,15 Z"/>
</svg>