<?xml version="1.0" encoding="UTF-8"?>
<svg fill="#fff" width="24px" height="24px" viewBox="1 1 22 22" version="1.1" xmlns="http://www.w3.org/2000/svg"
     xmlns:xlink="http://www.w3.org/1999/xlink">
    <path d="M12,14.3683 C13.308,14.3683 14.368,13.3083 14.368,12.0003 C14.368,10.6923 13.308,9.6323 12,9.6323 C10.692,9.6323 9.632,10.6923 9.632,12.0003 C9.632,13.3083 10.692,14.3683 12,14.3683 Z M12,7.6323 C14.409,7.6323 16.368,9.5913 16.368,12.0003 C16.368,14.4093 14.409,16.3683 12,16.3683 C9.591,16.3683 7.632,14.4093 7.632,12.0003 C7.632,9.5913 9.591,7.6323 12,7.6323 Z M21,13.421 L21,10.579 L19.441,10.579 C19.245,9.543 18.84,8.581 18.269,7.741 L19.369,6.641 L17.359,4.631 L16.259,5.732 C15.419,5.16 14.457,4.755 13.421,4.559 L13.421,3 L10.579,3 L10.579,4.559 C9.543,4.755 8.581,5.16 7.741,5.732 L6.641,4.631 L4.631,6.641 L5.731,7.741 C5.16,8.581 4.755,9.543 4.559,10.579 L3,10.579 L3,13.421 L4.559,13.421 C4.755,14.457 5.16,15.419 5.731,16.259 L4.631,17.359 L6.641,19.369 L7.741,18.269 C8.581,18.84 9.543,19.245 10.579,19.442 L10.579,21 L13.421,21 L13.421,19.442 C14.457,19.245 15.419,18.84 16.259,18.269 L17.359,19.369 L19.369,17.359 L18.269,16.259 C18.84,15.419 19.245,14.457 19.441,13.421 L21,13.421 Z M21,8.579 C22.104,8.579 23,9.475 23,10.579 L23,13.421 C23,14.525 22.104,15.421 21,15.421 L20.947,15.421 C20.884,15.586 20.817,15.748 20.746,15.908 L20.783,15.945 C21.564,16.726 21.564,17.992 20.783,18.774 L18.773,20.783 C18.398,21.158 17.89,21.369 17.359,21.369 C16.829,21.369 16.32,21.158 15.945,20.783 L15.908,20.746 C15.748,20.817 15.585,20.884 15.421,20.947 L15.421,21 C15.421,22.105 14.525,23 13.421,23 L10.579,23 C9.475,23 8.579,22.105 8.579,21 L8.579,20.947 C8.415,20.884 8.252,20.817 8.092,20.746 L8.055,20.783 C7.68,21.158 7.171,21.369 6.641,21.369 C6.11,21.369 5.602,21.158 5.227,20.783 L3.217,18.774 C2.436,17.992 2.436,16.726 3.217,15.945 L3.254,15.908 C3.183,15.748 3.116,15.586 3.053,15.421 L3,15.421 C1.896,15.421 1,14.525 1,13.421 L1,10.579 C1,9.475 1.896,8.579 3,8.579 L3.053,8.579 C3.116,8.415 3.183,8.253 3.254,8.092 L3.217,8.055 C2.436,7.274 2.436,6.008 3.217,5.227 L5.227,3.217 C5.617,2.826 6.129,2.631 6.641,2.631 C7.153,2.631 7.665,2.827 8.055,3.217 L8.092,3.254 C8.252,3.183 8.415,3.116 8.579,3.053 L8.579,3 C8.579,1.896 9.475,1 10.579,1 L13.421,1 C14.525,1 15.421,1.896 15.421,3 L15.421,3.053 C15.585,3.116 15.748,3.183 15.908,3.254 L15.945,3.217 C16.335,2.827 16.847,2.631 17.359,2.631 C17.871,2.631 18.383,2.827 18.773,3.217 L20.783,5.227 C21.564,6.008 21.564,7.274 20.783,8.055 L20.746,8.092 C20.817,8.253 20.884,8.415 20.947,8.579 L21,8.579 Z"/>
</svg>