<?xml version="1.0" encoding="UTF-8"?>
<!DOCTYPE svg PUBLIC "-//W3C//DTD SVG 1.1//EN" "http://www.w3.org/Graphics/SVG/1.1/DTD/svg11.dtd">
<svg fill="#FFFFFF" width="24px" height="24px" viewBox="21 9 21 21" version="1.1" xmlns="http://www.w3.org/2000/svg"
     xmlns:xlink="http://www.w3.org/1999/xlink">
    <path d="M42,13.1306667 C41.2191818,13.492 40.3868182,13.7313333 39.5194545,13.848 C40.4116364,13.2853333 41.0931818,12.402 41.4132727,11.338 C40.5815455,11.8613333 39.6626364,12.2306667 38.6832727,12.4373333 C37.8929091,11.5493333 36.7671818,11 35.539,11 C33.1551818,11 31.2359091,13.0406667 31.2359091,15.5426667 C31.2359091,15.9026667 31.2651818,16.2493333 31.3358182,16.5786667 C27.7569091,16.3946667 24.5897273,14.5846667 22.4623636,11.828 C22.0907273,12.5073333 21.8730909,13.2853333 21.8730909,14.1233333 C21.8730909,15.6966667 22.6405455,17.0906667 23.7853636,17.898 C23.0936364,17.884 22.4152727,17.672 21.84,17.3386667 L21.84,17.3886667 C21.84,19.5953333 23.3322727,21.4286667 25.2890909,21.8506667 C24.9390909,21.952 24.5566364,22.0006667 24.1608182,22.0006667 C23.8852727,22.0006667 23.6065455,21.984 23.3456364,21.9226667 C23.9037273,23.722 25.4863636,25.044 27.3680909,25.0873333 C25.9038182,26.2953333 24.0437273,27.024 22.0302727,27.024 C21.6770909,27.024 21.3385455,27.0073333 21,26.9613333 C22.9071818,28.2586667 25.1675455,29 27.6048182,29 C35.5269091,29 39.858,22.0766667 39.858,16.076 C39.858,15.8746667 39.8516364,15.6813333 39.8420909,15.4886667 C40.6967273,14.8486667 41.4145455,14.05 42,13.1306667"/>
</svg>