<?xml version="1.0" encoding="UTF-8"?>
<svg fill="#90A5C2" width="20px" height="19px" viewBox="0 0 24 24" version="1.1" xmlns="http://www.w3.org/2000/svg" xmlns:xlink="http://www.w3.org/1999/xlink">
<path d="M4,16 L20,16 L20,8 L4,8 L4,16 Z M20,6 C21.1,6 22,6.9 22,8 L22,16 C22,17.1 21.1,18 20,18 L4,18 C2.9,18 2,17.1 2,16 L2,8 C2,6.9 2.9,6 4,6 L20,6 Z M12,11 C11.45,11 11,11.45 11,12 C11,12.55 11.45,13 12,13 C12.55,13 13,12.55 13,12 C13,11.45 12.55,11 12,11 Z M12,15 C10.34,15 9,13.66 9,12 C9,10.34 10.34,9 12,9 C13.66,9 15,10.34 15,12 C15,13.66 13.66,15 12,15 Z M18,3 C18.553,3 19,3.448 19,4 C19,4.552 18.553,5 18,5 L5,5 L9,1 L9,3 L18,3 Z M6,21 C5.447,21 5,20.552 5,20 C5,19.448 5.447,19 6,19 L19,19 L15,23 L15,21 L6,21 Z" id="path-1"></path>
<g id="Mobile" stroke="none" stroke-width="1" fill="none" fill-rule="evenodd">
<g id="3.1.-Wallet:-Top-up" transform="translate(-141.000000, -157.000000)">
<g id="send_btn-/-normal-copy-4" transform="translate(128.000000, 148.000000)">
<g id="UI/Icons/24-arrow-change-Copy-8" transform="translate(11.000000, 8.000000)">
</g>
</g>
</g>
</g>
</svg>