<?xml version="1.0" encoding="UTF-8"?>
<svg width="360px" height="199px" viewBox="0 0 360 199" version="1.1" xmlns="http://www.w3.org/2000/svg" xmlns:xlink="http://www.w3.org/1999/xlink">
    <!-- Generator: sketchtool 55 (78076) - https://sketchapp.com -->
    <title>4B539ACB-F760-4066-8C55-EA175873BD93</title>
    <desc>Created with sketchtool.</desc>
    <defs>
        <rect id="path-1" x="0.111404255" y="0.00270908123" width="360" height="240"></rect>
        <polygon id="path-3" points="0 0.0394978723 254.781275 0.0394978723 254.781275 216.056738 0 216.056738"></polygon>
        <polygon id="path-5" points="0.69333819 0.732567376 180.894883 0.732567376 180.894883 207.600017 0.69333819 207.600017"></polygon>
        <polygon id="path-7" points="0.000142963283 0.262095107 151.540353 0.262095107 151.540353 130.903072 0.000142963283 130.903072"></polygon>
    </defs>
    <g id="Mobile" stroke="none" stroke-width="1" fill="none" fill-rule="evenodd" opacity="0.793712798">
        <g id="1.-Sign-up" transform="translate(0.000000, -2.000000)">
            <g id="BG" transform="translate(-0.315607, -0.002709)">
                <g id="Top">
                    <mask id="mask-2" fill="white">
                        <use xlink:href="#path-1"></use>
                    </mask>
                    <g id="Mask"></g>
                    <g id="Group-9" mask="url(#mask-2)" opacity="0.5">
                        <g transform="translate(-104.000000, -54.000000)">
                            <g id="Group-7" transform="translate(119.500000, 127.500000) rotate(-90.000000) translate(-119.500000, -127.500000) translate(-8.000000, 8.000000)">
                                <g id="Group-3" transform="translate(0.000000, 21.210695)">
                                    <mask id="mask-4" fill="white">
                                        <use xlink:href="#path-3"></use>
                                    </mask>
                                    <g id="Clip-2"></g>
                                    <path d="M163.952883,112.114711 C163.796748,112.664136 163.93094,112.776384 164.35377,112.450611 C164.652535,112.076732 164.299755,111.816789 163.952883,112.114711 M154.785663,127.753505 C153.86489,129.063349 156.453351,127.718058 155.832188,126.966079 C155.376443,126.923881 155.027883,127.186356 154.785663,127.753505 M162.476777,120.10459 C162.021876,120.959533 164.008585,119.945079 163.530897,119.437852 C163.064181,119.437852 162.712245,119.659817 162.476777,120.10459 M195.003443,101.875647 C194.916514,101.931349 193.948479,103.829441 194.541791,103.932406 C195.141855,104.037902 195.03467,101.317782 195.003443,101.875647 M111.01223,162.617129 C110.38094,164.137966 113.859791,162.343682 113.22006,161.725895 C112.820862,161.341888 111.331252,162.378285 111.01223,162.617129 M236.201918,10.2321433 C235.268486,13.5362922 237.402046,11.8297816 237.455216,12.0289589 C237.272918,11.3444979 237.078805,9.44893759 236.201918,10.2321433 M166.516025,114.539441 C166.494926,114.571512 166.168309,117.868909 166.313472,117.899292 C167.322018,118.112817 171.779876,109.243519 171.724174,108.964165 C170.881046,108.844321 167.02494,113.883675 166.516025,114.539441 M177.631131,102.223363 C176.757621,103.791462 172.045727,106.48964 172.941181,108.19615 C173.842543,109.914477 177.626067,103.956037 178.540089,102.95593 C178.519833,101.233384 183.100067,98.0161645 184.254621,96.5316184 C185.023479,95.5433277 190.319401,87.6842638 190.129507,87.4547035 C189.889819,87.1677532 178.636301,100.83503 177.631131,102.223363 M231.912011,14.1929021 C223.150741,22.6419021 215.633486,21.932122 205.759862,29.1641149 C201.682635,32.1509305 197.48472,34.723356 193.058089,37.1497745 C190.830848,38.3710014 180.913337,44.7007887 178.985706,43.8770723 C170.306301,47.5103702 160.695996,50.9208596 151.376018,52.5843277 C144.717926,53.7726397 138.040422,54.7111362 131.254046,54.4765121 C126.808004,54.3220652 115.06667,53.9920723 124.835642,50.401817 C134.789443,46.744044 145.494379,42.9157887 155.884514,39.811661 C162.239621,37.9144128 168.704443,36.2450369 174.885691,33.9350865 C179.618684,32.166122 188.050805,30.9119801 191.589578,27.4795475 C195.647394,27.6306184 202.691181,22.1802496 206.079727,20.0407816 C211.682855,16.5028525 217.020131,12.5691007 221.989436,8.34164681 C224.761883,5.9827461 227.371443,13.1050227 229.91855,10.3638028 C230.484011,9.75614326 239.947465,0.317164539 239.169323,0.0394978723 C240.946727,0.673320567 238.34645,4.46275319 238.083131,5.36749078 C237.64933,6.85710071 237.34972,7.78715745 237.39445,8.1365617 C237.619791,9.93000142 240.129762,13.2552496 241.106238,15.1465901 C243.688791,20.1513418 245.50755,27.0567177 248.950954,31.6504553 C249.223557,37.0814128 252.379167,42.9706468 253.250145,48.616817 C254.165855,54.5516255 254.761699,60.0441929 254.771826,66.0591787 C254.776046,68.2855759 255.030082,83.4762213 252.599443,83.5538667 C247.489195,83.7167532 250.900528,67.5876113 247.927216,65.5485759 C245.0805,53.9068312 244.959812,41.8549163 241.494465,30.1228667 C240.689316,27.3976823 239.736472,24.9197816 238.735521,22.3600156 C237.355628,18.8296823 236.850933,15.6107745 234.487812,20.8569021 C233.253926,23.597278 232.112032,26.3469376 231.251181,29.220661 C230.257826,32.5357816 232.144947,36.4264908 231.235989,39.455505 C232.602379,42.6161787 232.883422,48.1922993 233.015926,51.6011007 C235.712415,54.6081716 234.403415,61.3472851 236.234833,64.919817 C236.098954,69.2865262 238.306784,75.2542496 239.116996,79.6369943 C240.112039,85.0181574 241.903791,90.2440298 242.549429,95.7492567 C243.134301,100.744725 244.187578,106.191718 244.298138,111.328973 C244.382535,115.279604 243.700606,127.831994 239.542358,118.118725 C235.522521,108.727852 235.148642,96.5096752 233.878465,86.4731645 C233.24633,81.4760085 232.356784,76.7641149 231.269748,71.9028383 C230.519457,68.548895 226.281876,55.9458667 228.047465,52.7404624 C227.444025,49.7021645 228.07194,42.6803206 225.889429,40.3011645 C223.227543,42.4946468 223.172684,37.5970794 221.954833,40.0884837 C220.32428,43.4238596 217.501195,45.5489801 218.183968,49.8515475 C215.902713,55.0385972 218.059904,64.7991291 218.673472,70.0874553 C219.423762,76.5497461 220.50911,82.739434 221.553103,89.2000369 C222.679805,96.1670227 223.692571,103.150044 224.676642,110.198051 C225.129011,113.44059 225.664089,125.961753 225.873394,129.192477 C226.04472,131.833264 225.307933,136.114732 226.319855,138.533555 C224.578741,141.864711 227.630543,151.579668 219.271848,147.055136 C215.68328,145.114001 214.011372,136.570477 213.094819,133.132136 C212.691401,131.621427 212.722628,126.032647 211.63728,125.170952 C210.252323,112.458207 211.45245,99.4669518 212.151259,86.7947177 C212.493911,80.5889943 212.235656,74.3486681 213.133642,68.2070865 C213.467855,65.9241433 213.905032,52.8670582 215.598883,51.7918383 C213.873805,52.8881574 204.487996,68.0290085 205.448436,69.0670936 C206.501713,67.9699305 210.920748,62.6621929 210.885301,63.2099305 C210.484415,69.3329447 202.419422,73.7232851 200.036046,78.9643489 C197.543798,84.4451007 197.112528,90.3993206 196.776628,96.3299092 C196.402748,102.926391 196.472798,109.389526 196.871152,115.959845 C197.081301,119.415065 197.41045,122.834838 197.501599,126.290058 C197.536202,127.595682 196.863557,134.285001 197.836656,135.542519 C197.148819,142.221711 197.59106,149.116115 196.827266,155.872952 C196.254209,160.937626 196.537784,168.946072 193.65984,173.332193 C193.972954,176.396654 191.64528,182.038604 189.650131,184.338427 C179.597585,184.800923 186.976429,140.846881 187.644011,135.059767 C188.774933,125.251973 191.192911,115.57837 192.208209,105.899704 C192.577869,102.381186 193.095223,98.774895 193.635365,95.3584979 C193.956918,93.3245262 194.686954,84.6316184 195.415301,83.7758312 C183.803096,97.4220085 180.016195,116.225696 176.685039,132.883165 C174.981904,141.397994 173.962387,150.053767 172.796862,158.678313 C172.100585,163.835824 171.454103,168.896278 170.572152,173.942384 C169.875876,177.928462 169.889379,185.914122 166.943918,188.840172 C166.622365,192.134193 163.655805,200.062462 160.760138,202.015413 C154.929982,205.944945 154.616025,195.174179 154.75106,191.834583 C155.168826,181.447824 158.066181,170.959789 160.316209,160.730852 C162.454833,151.009143 164.983372,140.945626 168.545777,131.570789 C169.56023,128.903838 181.361486,102.539009 182.025691,102.893477 C180.925152,102.309448 170.671741,116.830824 169.600741,118.666462 C165.775018,125.219902 164.154592,133.491668 161.479202,140.548959 C159.296691,146.304845 157.61972,152.125718 155.313989,157.807335 C152.695145,164.258654 147.821209,170.535271 146.179684,177.364689 C142.519379,179.598682 139.324947,188.627491 136.942415,192.167952 C135.743131,193.949576 132.704833,200.315654 130.835436,201.101391 C130.428642,204.482342 122.823613,209.957186 120.190422,212.526235 C113.433585,219.119342 112.452046,215.001604 115.519883,208.616115 C119.854521,199.597434 124.889656,190.864016 129.885968,182.176172 C132.422103,177.76642 161.573727,126.233512 160.604004,125.885796 C160.517074,125.854569 149.823954,135.833689 149.820578,137.242278 C147.524975,139.443356 146.498706,144.203356 143.968479,145.887079 C143.9305,148.071278 139.324947,153.349477 138.244663,155.03742 C136.969422,157.030881 135.771826,159.14081 134.420628,161.076037 C131.30806,165.529675 128.349096,170.114129 125.07111,174.471555 C122.14506,178.358888 119.505117,182.023413 116.411961,185.866016 C113.963599,188.906845 110.551422,194.956434 106.895337,196.472207 C106.355195,199.439611 99.8954362,203.600391 97.7779113,205.360072 C95.466273,207.281796 93.0069397,209.05076 90.3669965,210.666966 C88.0325709,212.09581 85.6061525,213.805696 83.1324716,214.93915 C78.2939823,217.156264 78.273727,216.004243 78.6416986,212.109313 C80.5608901,211.349739 83.8717908,205.831009 85.4542376,204.083143 C87.5447553,201.774881 89.6538404,199.378001 91.7941525,197.246973 C97.3052872,191.762001 103.002096,186.204448 108.186613,180.404675 C116.814535,170.74964 126.872989,161.690448 134.002862,150.778739 C123.494571,157.059576 114.292748,164.18776 106.010855,173.549094 C102.065287,178.00864 98.4497128,181.982902 94.1353298,186.064349 C91.2624504,188.782782 84.7875,196.943143 80.8562801,197.683306 C78.0315071,202.450902 69.4997979,206.231895 64.6317695,208.655782 C59.3257199,211.298257 54.3741383,212.352377 48.7701667,214.036945 C47.1970035,213.405654 44.029578,215.236228 42.7931596,213.244455 C41.143195,210.589321 45.1731596,208.515682 46.8805142,207.418519 C51.230344,204.623285 55.9557411,202.158044 60.6465355,199.936711 C67.5493794,196.665477 77.4837695,191.331576 82.2716206,185.566406 C85.470273,185.751235 93.3681596,173.960108 95.913578,175.021824 C94.2315426,174.322172 79.7253582,182.964441 78.2771028,184.36459 C76.158734,184.47093 73.5677411,186.610399 71.6654291,187.378413 C68.9967908,188.455321 66.1213794,189.317016 63.3725638,190.215845 C58.8016135,191.711363 54.1884645,193.24486 49.4605355,194.289696 C40.9811525,196.164157 32.1819043,196.890817 23.6130603,195.813909 C17.8985284,195.095689 12.4084929,193.616207 7.13029433,191.703767 C5.08535106,190.96276 -2.65555674,189.325455 0.93891844,187.018037 C2.75936525,185.849136 10.7019823,187.270384 13.4010035,187.321867 C16.3270532,187.378413 22.5454362,186.2112 25.0630035,187.382633 C32.1211383,186.044938 40.2553369,186.940391 47.4847979,186.089668 C53.3647482,185.397611 59.1197908,184.501313 64.8621738,183.109604 C71.7743014,181.436009 79.0780319,179.540448 85.6247199,176.452356 C88.9600957,174.880037 93.0812092,173.715356 96.180273,172.014753 C99.2599255,170.324278 102.171628,166.577044 106.020982,166.26815 C105.777918,166.458888 108.370599,164.534633 108.040606,163.964108 C109.16984,165.92803 78.9835071,173.216569 76.8178759,175.221001 C74.8235709,174.439484 69.3335355,177.325867 67.0033298,177.21193 C64.2080957,178.991867 57.5879823,178.911689 54.2888972,179.158973 C49.8428546,179.492342 45.4710816,179.558172 41.0301028,179.348023 C34.8100319,179.052633 28.1899184,177.920867 22.6332092,175.245477 C14.1344149,171.153058 23.2265213,170.795214 27.577195,170.910838 C41.025039,171.269526 55.0830745,171.045874 68.5511738,170.260136 C74.6497128,169.90398 81.1044078,168.647306 87.0991383,167.498661 C92.3807128,166.486739 100.163819,162.087959 105.425138,162.817994 C109.177436,160.627044 113.166046,159.068228 116.861798,156.740555 C119.06372,155.353909 121.483387,153.06337 123.702188,151.979711 C127.63594,150.058831 124.126706,152.942682 123.163734,154.662696 C123.096216,154.629782 123.047266,154.644973 123.017727,154.707427 C123.068365,154.698143 123.117316,154.68886 123.167954,154.681264 C124.885436,155.266136 134.609677,147.250094 135.642699,146.389243 C137.004025,145.254945 144.106046,137.200079 144.11533,137.205987 C145.155103,137.880321 143.430869,138.812065 143.992954,139.51003 C146.964578,137.643165 152.793046,131.763214 154.122301,128.633767 C150.640918,130.515824 147.554514,133.693377 144.379493,136.024427 C142.567486,137.354526 138.706316,141.18025 136.291713,141.39293 C132.965621,145.162952 126.243387,147.403696 121.815067,149.687484 C117.588457,151.866618 111.411429,156.304221 106.470819,156.667129 C99.8296064,161.547817 87.6316844,163.564065 79.7262021,164.751533 C74.7889681,165.49254 69.6812518,166.283342 64.6537128,166.203165 C60.8246135,166.142399 48.4351099,166.705328 46.1276915,163.898278 C43.4767766,160.675994 53.0533227,160.99586 55.0526915,160.782335 C60.8904433,160.160328 66.6952801,159.182165 72.4731099,158.146611 C84.3933652,156.011363 95.5743014,152.28776 107.034592,148.715228 C107.832989,148.010512 109.01455,148.162427 109.85177,147.542952 C110.981848,147.494845 111.731294,146.542001 112.812422,146.379959 C116.308996,143.193122 124.099699,141.089101 128.301833,138.760583 C132.870252,136.228668 137.361025,133.586193 141.753897,130.771548 C144.995592,128.695377 147.770571,126.478264 150.913521,124.15903 C153.44628,122.290477 163.511486,115.986009 163.052365,113.130852 C151.697571,123.843384 136.879117,130.022101 123.243911,136.939292 C121.115415,136.494519 115.098741,139.477115 112.711989,140.046796 C110.212145,140.64264 107.640564,141.53725 105.096833,141.938136 C102.251805,142.387129 99.275961,142.562675 96.4174291,142.71037 C93.6795851,142.851313 89.7517411,141.717016 87.255273,142.481654 C83.2810106,140.856165 70.2534645,141.170122 67.6413723,136.778094 C66.2631667,136.366235 58.8708191,133.697597 59.5949468,132.00037 C60.2650603,130.430583 65.6951738,131.526058 67.1679043,131.536186 C72.0992305,131.569101 76.9605071,131.304094 81.8192518,131.449257 C92.7993227,131.778406 103.329557,130.802774 114.062344,128.363696 C122.237897,126.506115 130.599968,123.280455 138.258167,119.664037 C143.659585,117.112711 148.531833,113.68281 153.734074,110.850441 C158.372543,108.324434 164.102266,104.206696 169.086762,102.56686 C170.321493,100.862037 184.163472,92.7624411 182.714372,90.4820298 C182.59706,90.2972 181.213791,91.4618809 181.240798,91.4036468 C175.534706,95.5796184 169.215046,99.1563702 163.103848,102.528881 C160.482472,103.974604 157.423918,105.181484 154.95277,106.326753 C152.685862,107.376654 147.448174,108.341313 145.814245,110.250377 C144.379493,110.21493 133.845883,112.810987 132.899791,114.063441 C129.762748,114.552101 99.0244574,120.261569 100.501408,115.611285 C101.211188,113.37898 112.562606,111.512959 114.717266,110.946654 C118.727819,109.892533 127.265436,109.127895 130.293606,106.391739 C135.919521,106.343633 142.845152,101.892526 148.188337,100.206271 C153.518018,98.5233915 158.503358,96.7493631 163.658337,94.5761362 C169.953521,91.9201574 175.832628,88.8835475 181.684727,85.3565901 C185.106188,83.2939234 196.114954,77.7760369 196.393465,73.7578879 C199.912826,70.8833206 202.23206,66.1131929 204.617968,62.4528879 C205.346316,61.3354695 212.452557,50.730966 212.239876,50.4448596 C212.42555,50.6955191 187.924209,70.2022355 185.961975,71.6606184 C181.198599,75.2019234 176.196379,78.8571645 171.178124,82.0203702 C165.358096,85.6882709 157.724372,87.6581007 152.36684,91.6593702 C149.63406,91.4230582 145.351748,94.1684979 142.739656,95.0622638 C139.153621,96.2902426 135.622443,97.1848525 131.98577,98.1317887 C128.289174,99.0939163 124.390025,99.7834411 120.543202,100.137909 C118.354784,100.338774 113.038606,99.2407674 111.326188,100.309235 C104.738989,99.5116823 103.089025,96.129044 109.885528,93.4367745 C113.355096,92.0636326 117.08545,91.3243135 120.686677,90.238966 C124.338543,89.138427 127.93133,87.9450511 131.485294,86.5575617 C133.033982,85.952434 140.136004,82.1013915 141.666124,82.8407106 C146.682691,81.0869376 151.596294,78.9812284 156.383301,76.7345759 C159.845273,75.1090865 164.945394,74.1537106 167.797174,71.703661 C170.52489,71.7483915 175.645266,68.4400227 177.988975,67.2955972 C179.989188,66.3165901 185.550117,64.6050156 186.867557,62.8706539 C192.460557,61.9979872 199.932238,55.7939518 204.728528,52.8189518 C209.453926,49.8895262 221.200323,41.655739 219.952089,35.1048312 C218.591606,34.4229021 204.927706,46.6064766 202.856599,48.0859589 C196.137741,52.8830936 188.98255,57.0700369 181.643372,60.9539943 C175.781989,64.056434 169.902883,66.8871149 163.68028,69.1793418 C160.103528,70.4967816 156.560535,71.9070582 152.896855,73.0658312 C151.023238,73.6599872 142.824053,77.0375617 140.73016,76.0062284 C136.088316,78.039356 128.358379,77.9465191 123.415238,77.5304411 C120.477372,77.2840014 107.094514,75.1985475 115.262472,72.4944624 C120.222493,70.8512496 126.668748,70.7254979 131.89884,69.7321433 C137.370309,68.6932142 142.97428,67.7952284 148.462628,66.6567106 C171.401777,61.8933348 195.130039,50.6896113 213.910096,37.0316184 C219.884571,32.6860085 222.887422,38.3684695 225.212564,31.8403489 C227.151167,26.3984199 232.065613,20.0931078 231.891755,14.195434 C232.059706,14.0536468 232.142415,13.8865404 232.139883,13.6949589 C231.87572,13.7287177 231.799762,13.8941362 231.912011,14.1929021" id="Fill-1" fill="#352785" mask="url(#mask-4)"></path>
                                </g>
                                <g id="Group-6" transform="translate(70.049645, 0.111404)">
                                    <mask id="mask-6" fill="white">
                                        <use xlink:href="#path-5"></use>
                                    </mask>
                                    <g id="Clip-5"></g>
                                    <path d="M167.340332,18.2937603 C169.803885,16.8083702 169.234204,10.3570511 169.838488,7.91459716 C170.235155,6.30767518 170.153289,5.22317163 171.554282,4.29564681 C171.819289,4.12094468 179.019211,2.54778156 179.637843,2.63133475 C179.823516,1.82787376 180.231155,1.19573901 180.861601,0.732398582 C181.243077,0.626902128 178.227566,12.5800723 177.828367,13.927895 C176.645963,17.9055333 175.217963,21.7489801 173.632984,25.591583 C169.343077,35.9935333 165.165417,46.8605121 159.080382,56.5239872 C159.098105,56.8354128 159.117516,57.156122 159.13524,57.4633277 C156.859048,62.6166184 153.875609,58.3334624 150.893013,63.2875759 C148.116346,67.8973489 141.377233,76.6822496 141.123197,81.995895 C140.886041,82.1494979 140.617658,82.3242 140.340835,82.5048099 C140.343367,82.7039872 140.346743,82.8955688 140.350119,83.128505 C136.813034,85.9026397 136.605417,92.1227106 132.563637,94.4461645 C132.447169,94.6841645 132.30707,94.9702709 132.166126,95.2572213 C132.273311,95.4783418 132.374587,95.6893348 132.484304,95.9163631 C131.241133,97.3663064 124.507084,105.826278 124.677566,107.90498 C123.576183,108.72954 122.709424,109.894221 121.536304,110.723845 C121.46541,111.447973 121.39536,112.161129 121.321935,112.909732 C119.578289,113.995079 118.449899,116.245108 117.253991,117.945711 C114.62924,118.802342 112.207885,126.932321 109.697913,127.040349 C108.49019,128.590725 104.599481,131.45854 104.562346,133.50686 C103.579963,134.077384 102.799289,134.84793 102.219481,135.81681 C99.9145943,136.468356 99.1921546,141.174342 96.8222823,141.636838 C96.147105,142.999852 94.6245801,143.558562 94.0076369,144.897945 C93.7628851,144.92242 93.5223532,144.946051 93.2573461,144.973058 C92.3061901,146.88803 89.0754667,150.090902 87.1199844,151.217604 C85.5653887,154.56986 80.1243035,159.041221 77.1282043,161.046498 C77.0370553,161.27437 76.9340908,161.53347 76.8285943,161.796789 C74.5937574,162.784235 68.6235021,166.562696 68.3061688,169.086172 C67.822573,169.376498 67.3457291,169.416165 66.7903957,169.209391 C65.8670908,170.522611 64.492261,171.673789 63.361339,172.856193 C63.0532894,172.847753 62.8093816,172.841001 62.6017645,172.835094 C60.6353106,174.198952 57.5446865,178.038179 55.0195234,178.109916 C53.8379631,179.791108 51.1406298,181.390434 49.1969631,182.140725 C49.0931546,182.463122 48.9986298,182.75598 48.8889135,183.096945 C45.3433887,182.655548 39.500573,188.396243 36.4825305,190.150016 C33.8763461,191.664945 29.3129915,193.35964 27.571878,195.601228 C24.9749773,195.919406 22.6219844,198.085037 20.3711121,199.347618 C17.4965447,200.960448 13.1264596,202.151292 10.8131333,204.396257 C9.00703404,204.646072 2.29492766,208.638058 0.949636879,207.341718 C-0.320540426,206.117959 3.51615461,205.485824 4.04026099,205.470633 C4.27657305,202.744604 12.9163106,202.178299 14.5401121,199.910548 C17.696566,200.128292 22.6734667,194.23737 25.5455021,193.350356 C27.1203532,191.620214 33.4805234,185.839852 36.0267858,185.909902 C37.0707787,184.932583 42.5928851,180.235881 44.0959986,180.581909 C44.1559206,180.24854 44.2048709,179.981001 44.2521333,179.714306 C48.0086511,177.57315 52.8808993,174.269845 55.5714809,170.998611 C57.947261,170.558058 60.7332113,167.283448 62.2768355,165.844477 C64.6197007,163.660278 67.081566,160.751108 70.1645943,159.426072 C72.2888709,155.613009 77.908878,153.597604 79.6179206,149.645285 C80.0010837,149.523753 80.4281333,149.387874 80.8864099,149.242711 C82.4891121,146.434817 86.0236652,144.788228 87.7749064,141.904377 C91.9711333,139.79698 96.2500695,133.777774 99.4900766,130.425519 C100.849715,129.019462 107.632715,119.274122 109.318126,119.339952 C111.017885,116.822384 112.816389,114.576576 114.664687,112.115555 C115.628502,110.831874 118.618694,106.13686 119.994367,105.489533 C120.815552,103.070711 124.598233,98.2330652 126.737701,96.7113844 C127.251679,95.3154553 128.234062,92.0121504 130.109367,91.872895 C129.885715,89.6490298 133.107999,86.5162071 134.222885,84.8071645 C135.277006,83.1909589 136.439155,80.0074979 138.126254,78.9795404 C138.176892,78.6005972 138.236814,78.1676397 138.302644,77.6806681 C140.689396,75.511661 141.315623,72.1923206 143.729382,69.9330085 C143.552148,69.1396752 143.61207,68.3623773 143.908304,67.6002709 C146.471445,65.604278 148.397389,60.6501645 149.980679,57.7831929 C150.013594,57.3325121 150.044821,56.8970227 150.07858,56.4328383 C151.491389,55.8547177 151.952197,53.3413702 152.28641,52.1496823 C152.396126,52.0787887 154.003892,50.1756326 153.742261,49.4962355 C154.794694,48.2395617 156.356041,54.8892142 156.191467,53.229122 C157.143467,52.2366113 160.581807,44.0602142 159.899878,42.6161787 C160.499098,42.1443986 160.587715,41.357817 161.169211,40.883505 C161.26458,39.6783135 161.645211,38.561739 162.311105,37.5329376 C161.895027,35.558044 164.13324,30.9550227 165.328304,29.2535759 C165.179765,28.9750652 165.104651,27.198505 165.616098,26.8862355 C165.643949,24.0471149 167.808736,21.1978667 167.340332,18.2937603" id="Fill-4" fill="#0E135C" mask="url(#mask-6)"></path>
                                </g>
                            </g>
                            <g id="Group-6" transform="translate(444.315607, 184.994475) rotate(-41.000000) translate(-444.315607, -184.994475) translate(368.315607, 77.494475)">
                                <g id="Group-3" transform="translate(0.000000, 0.212627)">
                                    <mask id="mask-8" fill="white">
                                        <use xlink:href="#path-7"></use>
                                    </mask>
                                    <g id="Clip-2"></g>
                                    <path d="M54.8774448,82.1984868 C54.2034934,79.550617 52.4967826,77.42767 51.3838135,74.9919525 C50.2618267,72.5372506 49.482511,70.0037627 48.2793653,67.6397119 C45.7397075,62.6505728 44.4297737,57.3652748 42.7980519,52.0984868 C41.2218598,47.0139503 40.0244095,41.9203962 38.8307561,36.8097561 C38.1843322,34.0427583 37.6622572,31.4537406 37.1098068,28.7992263 C36.8179194,27.3957936 35.2578642,21.7417208 36.0903366,20.4920629 C34.9536369,17.7516435 35.3532616,13.7852969 35.4515066,10.8621512 C35.5445309,8.10749338 35.1135817,4.45106954 35.9887693,1.86584879 C37.5810982,-2.83994592 40.6584934,4.11789073 41.4824227,6.05811148 C43.0377318,9.71928146 44.0415397,14.0994912 45.3918157,17.9747119 C47.6414845,24.4318311 50.1085265,30.7171402 51.8019481,37.3327804 C52.8100276,41.272074 54.2803808,45.1098002 55.4180298,49.0149216 C56.0226876,51.0927804 57.0250717,53.1013455 57.5158223,55.2114779 C57.8713079,56.739734 57.7464845,59.8451313 58.8694205,61.1223168 C58.7991777,61.8313896 60.9838245,70.6596788 61.2766611,70.6411689 C60.8917494,70.6648996 59.8072572,44.0267318 59.7298951,42.2042152 C59.5115728,37.0665221 58.879862,31.8054294 58.9149834,26.7095022 C58.9296965,24.5927252 59.0877428,22.3402086 59.301319,20.2913013 C59.4930629,18.4521733 59.1978532,13.9628024 60.3070254,12.5294691 C59.892213,10.6049106 60.4883278,3.3333543 62.3545088,2.22370751 L64.0759327,2.9066766 C64.1974338,4.62193046 66.5657561,5.97885099 66.2245088,7.89059492 C67.0674227,8.83270309 66.6070475,11.9888841 67.8661976,12.6262903 C68.8348841,15.4089503 69.5809768,18.4853962 70.1884823,21.479734 C70.4030077,22.5390717 70.4661313,23.7213344 70.6873013,24.6753079 C70.7694095,25.0312682 71.1547958,27.2643256 71.4803808,27.7531777 C71.5245199,28.5068642 72.0038797,29.225904 71.6725993,30.0090166 C71.7324007,31.2771843 72.7775,35.7627583 72.0024558,36.79267 C71.8572241,47.0504956 70.6455353,57.4255508 69.4979194,67.761213 C69.0109658,72.1399989 68.7874227,76.5325486 67.8875552,80.8833322 C67.6597406,81.9872837 64.6260099,94.4074492 67.0778642,94.8407715 C67.6773013,94.947085 70.9972241,74.20267 73.0157561,73.0972947 C73.8828753,70.5846898 74.6284934,68.0355397 75.7390894,65.6207053 C77.0613631,62.7454956 79.2037693,59.6638289 80.0969923,56.6699658 C81.5355464,55.1749327 82.6323786,51.9755618 83.6414073,50.0680894 C84.5707009,48.3101203 85.4273786,47.0334095 86.412202,45.2479128 C88.7843212,40.9498113 91.6191887,37.0157384 94.6628863,33.1362461 C97.1076214,30.0199327 99.9747627,27.0725817 103.003273,24.6060143 C104.174619,23.6525155 107.320833,20.6263786 108.008549,23.6553631 C108.248703,24.7137517 106.270513,30.3872837 105.474586,30.9245464 C102.070657,38.6925486 97.5010762,46.2460254 93.402787,53.8180121 C91.0752815,58.1184868 88.3505243,62.1901976 86.2664956,66.5585419 C85.6290894,67.8950541 81.4135706,77.4476038 80.7756898,77.3683433 C81.4225883,77.4495022 85.0548068,72.6601755 85.7520143,71.9762572 C88.2190563,69.5543035 90.7231181,67.4484426 93.300745,65.1228355 C95.4702042,63.1655287 97.6833278,61.4531225 99.9477097,59.6851865 C100.899785,58.9414669 107.252964,53.5455839 108.308979,54.3334426 C109.799266,52.1839172 114.044685,50.2531887 116.401617,49.1022506 C119.240756,47.7149547 122.365138,46.3347781 125.327677,45.0780011 C127.961308,43.9617097 130.735425,42.8852859 133.445944,41.8055397 C134.241396,41.4889724 135.744498,40.9313013 136.614465,40.6797561 C137.3392,40.4699768 141.048306,40.7006391 138.977092,42.1121402 C138.376705,43.8164779 136.051098,45.0618642 134.910127,46.3281336 C133.421738,47.9797892 131.777677,49.8269857 130.187246,51.5265773 C127.565006,54.3277472 124.684575,57.2437737 121.657964,59.6794912 C121.749564,61.3999658 117.14771,64.147979 116.198482,65.1954514 C113.527357,68.1437517 109.442357,70.5182439 107.285712,73.8215552 C104.059288,75.307096 101.749343,79.2221843 98.8950166,81.2198333 C96.5347627,82.8733874 94.1835265,84.495617 91.7762859,86.1643587 C90.2679636,87.2099327 78.3475662,94.0363013 78.4410651,94.1715662 C78.7177649,94.5692925 81.8307561,93.0334426 82.0860982,92.8502417 C85.1255243,92.4330563 88.47867,91.202383 91.2831623,90.2541049 C94.5224007,89.1591711 97.558979,88.2564558 100.83856,87.4439172 C106.32367,86.0846236 112.118703,84.0907715 117.838747,83.8525155 C118.946496,82.8724382 122.986407,82.8881004 124.484288,82.6697781 C126.131672,82.4300982 127.808957,82.2654073 129.42644,82.034745 C133.306882,81.4827693 137.46165,81.1980011 141.162213,81.0874161 C142.600767,81.0442263 144.276153,81.2592263 145.677688,81.1904073 C147.000911,81.1263344 149.378725,80.2687075 150.658284,80.9706611 C152.612743,82.0432881 150.912202,82.5406832 149.479818,83.0570629 C147.256727,83.8586854 144.718968,84.1633874 142.57324,85.1591269 C140.278482,85.0233874 136.803836,86.5692042 134.582169,87.0851093 C132.303549,87.6143035 129.997875,88.2915773 127.741087,88.8857936 C122.367986,90.3001424 116.976374,91.8749106 111.695822,93.2612572 C107.775513,94.2902196 103.583251,95.2835861 99.541915,96.3201424 C96.905436,96.9964669 94.1749834,97.8203962 91.5067053,98.1939172 C90.1754139,98.380915 89.0249503,98.6533433 87.7349503,98.8892263 C86.7221247,99.0748002 84.0794757,98.9376369 83.3841667,99.6334205 C83.9370916,100.454977 85.6461755,99.4345574 86.3011424,100.012162 C86.9494647,100.047284 87.570734,100.192515 88.1654249,100.443586 C89.7705684,99.8047561 92.7416501,101.311655 94.1393874,101.621103 C96.1417826,102.064866 98.1679084,102.673796 100.03314,103.120407 C101.081087,103.371478 102.293725,103.489182 103.419034,103.832802 C104.632621,104.203001 109.042257,104.843255 109.768891,105.901169 C117.339928,108.410451 125.015381,110.952008 132.450204,114.193619 C133.435977,114.623145 137.668582,116.152825 136.883096,117.763663 C136.424619,118.704348 133.631518,118.051754 132.753957,117.975816 C128.032025,117.567648 123.18622,117.451842 118.411131,116.572383 C110.733306,115.15756 102.372986,115.064535 94.7858113,113.520617 C90.5626987,112.661566 86.3747075,111.384381 82.312489,109.768796 C80.323383,108.977615 78.4401159,108.015573 76.4638245,107.206831 C74.936043,106.581765 72.103074,105.87554 70.8624338,104.723178 C70.2995419,104.762571 69.9459547,104.455496 69.6540673,104.044955 C67.3987031,103.438398 67.5800055,102.031169 65.7911865,103.512913 C64.6364514,104.470209 63.6022682,107.131368 62.6729746,108.35065 C60.5571468,111.126191 58.3373786,113.236323 55.7217826,115.467957 C53.3881071,117.458961 50.7843764,119.956853 48.0691115,121.463277 C46.3699945,122.406334 43.1601821,124.947891 41.366617,125.078884 C41.076628,125.360805 38.3570916,126.641787 37.980723,126.618531 C35.7191887,128.302935 32.1709768,128.996345 29.4148951,129.730098 C28.5862196,129.950794 25.5358775,131.298222 24.7029305,130.788961 C22.9103146,129.692129 25.3436589,128.478067 25.6008996,127.395948 C27.7907671,126.151986 29.9274779,123.865772 31.8624779,122.274866 C34.3570475,120.224535 36.7491004,118.269602 39.4700607,116.486478 C41.846926,114.928796 44.2237914,113.3265 46.5911645,111.876081 C48.4682616,110.726566 52.8218929,109.033619 53.9353366,107.076312 C54.0990784,107.071566 56.2367384,107.045462 55.7478863,106.381003 C55.418979,105.933917 54.0886369,106.789646 53.9405574,107.088652 C52.3842991,106.461688 49.1184823,109.092946 47.4307561,109.249094 C45.4345309,110.732262 41.8735044,110.591301 39.5815949,111.634502 C38.5564294,111.226334 32.4457781,112.470297 31.5805574,112.922604 C29.8785927,112.756964 26.0897517,112.643531 24.4751159,113.199304 C22.4646523,112.287571 18.0996302,112.77405 15.9600717,112.656345 C14.9325331,112.599866 13.998968,112.607935 12.9590894,112.501621 C11.974266,112.401003 8.11280905,111.191688 7.20344923,111.595584 C6.33490618,110.951533 4.80854857,111.330749 3.93620861,110.764535 C3.04963024,110.775451 0.0168487859,109.945352 0.000237306843,108.837604 C-0.0225441501,107.370098 4.08713576,107.255716 5.13318433,107.144182 C8.72411148,106.759745 12.3625,106.324524 15.9823786,105.938663 C19.4745861,105.565617 23.1219923,105.366754 26.5145309,104.896886 C28.3441667,104.643917 30.180447,104.470209 32.0167274,104.236224 C33.4329746,104.055396 36.5526104,102.982769 37.8459327,103.375749 C40.5322461,102.178774 45.2228532,102.184944 48.1597627,101.697515 C49.5389901,101.469226 55.4797296,101.437902 56.2680629,100.437416 C55.9372572,100.857449 48.4905684,98.8261026 47.470149,98.5826258 C44.9086589,97.9722726 42.2626876,97.1948554 39.709266,96.4335751 C34.4794978,94.8739945 28.9516722,93.0177804 24.1917715,90.473851 C19.0910982,87.7471954 14.0801269,85.1216325 9.3767053,81.6654956 C7.2789128,80.1239503 4.51001656,78.1756611 2.87259934,76.2164558 C2.61393488,75.9074823 0.600149007,73.8039945 0.517091611,73.4693918 C0.164453642,72.0507715 1.64762141,70.4807494 2.96799669,72.0488731 C5.49436534,72.2667208 8.17071192,73.8694912 10.4327208,74.870926 C12.6026545,75.8310695 14.8523234,76.749447 16.9391998,77.7366435 C20.8595088,79.5904845 24.943085,81.4448002 29.0352042,83.0622837 C32.8843212,84.5834205 36.7030629,86.3784095 40.6176766,87.7856391 C41.6181623,88.1449216 52.0383057,91.4843035 52.0174227,91.9328135 C52.0359327,91.5236965 49.6846965,90.2042704 49.2950386,89.8682439 C47.8768929,88.6446898 44.710745,86.5777472 43.9902815,84.9175486 C33.9284713,76.2662903 26.1571468,64.5001424 21.3649724,52.5512682 C20.2776325,49.8407494 19.0673675,47.1648775 18.0516943,44.4339503 C17.1418598,41.9858929 14.5965066,34.4191269 19.46367,38.5686744 C22.7522682,41.3722174 25.0375331,45.2004514 27.8733499,48.3794139 C28.9877428,49.6290717 29.902798,50.8089614 30.915149,52.1445243 C31.6640894,53.1321954 34.7804029,55.589745 34.6228311,56.7734316 C34.9275331,57.0434868 35.1164294,57.3742925 35.1828753,57.7691711 C37.2246634,58.7264669 38.6475552,61.3477583 39.9612859,62.9861247 C42.0491115,65.5884316 44.0206567,68.2377252 46.0534272,70.8333874 C47.3329857,72.4660585 48.5911865,74.0071291 49.7800938,75.7513344 C50.8432285,77.3104404 53.164564,81.5700982 54.8627318,82.2046567 C54.8375773,82.2606611 54.8537141,82.2962572 54.9111424,82.3109702 C54.9002263,82.2734757 54.8888355,82.2359812 54.8774448,82.1984868" id="Fill-1" fill="#352785" mask="url(#mask-8)"></path>
                                </g>
                                <path d="M47.2706689,203.777332 C47.2644989,203.74933 47.2588035,203.721802 47.2521589,203.6938 C47.1472693,203.719429 47.1135717,203.773061 47.1510662,203.854694 C47.1909338,203.829065 47.2308013,203.803436 47.2706689,203.777332 M50.7818609,190.660908 C50.757181,190.651416 50.7320265,190.640975 50.706872,190.631482 C50.6594106,190.742542 50.6119492,190.854076 50.5644879,190.96561 C50.5896424,190.975577 50.6147969,190.985544 50.6399514,190.995036 C50.6869382,190.883977 50.7343996,190.772443 50.7818609,190.660908 M51.3048852,187.657078 C51.2702384,187.832211 51.3347859,187.910522 51.4999514,187.893436 C51.4880861,187.796615 51.4762208,187.700268 51.4643554,187.603922 C51.4202163,187.618635 51.3760773,187.632873 51.3048852,187.657078 M43.6465188,212.645489 C43.8539249,212.727123 44.0708234,212.813502 44.2720596,212.893237 C44.9858786,212.215014 44.5297748,212.093513 44.3741015,211.331284 C43.9279647,211.732807 43.6901832,212.122465 43.6465188,212.645489 M46.3304592,206.435169 C46.7960552,206.48263 46.7523907,206.02273 46.6389581,205.809153 C46.365106,205.914043 46.2659117,206.129518 46.3409007,206.456526 C46.1002715,206.601284 46.1002715,206.601284 46.0860331,207.008977 C46.194245,206.753635 46.2621148,206.594164 46.3304592,206.435169 M45.4495762,208.586118 C45.3930971,208.766946 45.3370927,208.947774 45.2279316,209.29614 C45.4699845,209.004253 45.4827991,208.424275 45.588638,208.082078 C45.4002163,208.223513 45.1913863,208.368745 45.4495762,208.586118 M48.8544547,205.73986 C49.1729205,206.958668 48.4472362,207.684352 47.7087373,208.630732 C48.2602384,210.685334 46.3708013,212.76699 45.7053929,214.618458 C44.1567285,215.022354 42.6047417,214.293822 41.096894,214.035158 C39.8396424,212.503105 43.793649,203.936802 44.4358013,202.322641 C45.0665629,200.736008 45.5449735,199.294606 46.0651501,197.676173 C46.4268057,196.54944 47.0053598,194.280787 47.8852936,193.435975 C47.8601391,192.969904 47.786574,192.513326 48.0960221,192.12082 C48.2445762,190.675147 50.3390464,187.591107 49.6185828,186.197641 C50.3357241,185.731571 50.5507241,184.7121 50.942755,183.966482 C50.8620706,183.848304 50.7794879,183.726802 50.6964305,183.604827 C50.8596976,182.709705 51.2379647,181.849231 51.1705695,180.884341 C52.2033289,179.616173 53.4003046,176.380257 52.9522693,174.796471 C53.5170596,174.367421 53.7292119,173.942167 54.05717,173.319474 C53.6010662,172.280544 54.6437925,169.665423 54.9219161,168.584253 C55.278351,167.199805 55.5550508,164.811074 56.5180419,163.766924 C56.0306137,162.515368 57.3310552,159.659142 57.5275453,158.317884 C57.7577329,156.747387 58.2954702,155.389518 58.6182075,153.820919 C59.0928212,151.514297 59.5332627,149.150246 59.9570927,146.842674 C60.4079757,144.394617 61.417479,141.312001 61.2798411,138.869639 C61.4198521,138.729153 61.5693554,138.580125 61.7259779,138.423028 C61.7772362,133.444805 63.0534724,128.18656 63.4583179,123.268138 C63.6410442,121.047895 64.2580419,118.755986 64.4094437,116.527674 C64.5988146,113.750235 65.4137263,109.73263 64.8047969,107.029231 C64.5333179,107.051063 64.2599404,107.072421 63.9500177,107.0971 C63.3135607,108.493889 57.6319603,112.455014 56.0951611,112.787244 C55.6048852,113.636328 52.3618499,116.147034 51.283053,115.754529 C49.8316843,113.789153 56.9760442,109.405621 57.7230861,107.679926 C58.425989,107.329187 63.0249956,103.957056 62.7881634,103.171096 C60.1412428,103.378977 57.3068499,105.170643 54.7700397,105.956129 C52.4600949,106.670423 49.73866,108.562708 47.317181,108.405136 C46.7001832,108.994131 45.6555585,109.243304 45.8007903,108.067685 C45.9118499,107.173039 47.3594216,106.917222 47.9526887,106.567432 C49.0181965,105.939043 52.7871038,103.73731 53.940415,103.934275 C54.071883,103.712156 54.1914857,103.50997 54.3243775,103.285478 C54.6922031,103.321074 55.0543333,103.35667 55.4254812,103.392741 C56.8863422,102.027752 58.9855585,101.826515 60.6675894,100.827928 C60.6291457,100.249374 53.6755806,98.9588996 52.9854923,98.760511 C50.4515298,98.0324536 44.665989,97.4956656 43.2402494,95.1714823 C43.2910331,94.9398709 43.4334172,94.7533477 43.668351,94.612862 C44.931298,94.4965817 46.2426556,94.8397274 47.5179426,94.8544404 C47.6014746,94.9735684 47.6693444,95.069915 47.7614194,95.2009084 C48.4519823,94.7367362 56.5982517,96.4961291 57.3433951,97.5640099 C59.3139912,97.192862 61.7155364,98.9740872 63.7131854,99.2014272 C63.0506247,99.0486015 62.6182517,98.6632152 62.4146424,98.0462174 C62.1070927,98.1264272 60.9461876,97.2493411 60.584532,97.1610629 C60.321596,95.0006214 55.6419051,93.738149 54.6623024,91.665511 C54.4287925,91.6522219 54.2194879,91.6398819 53.9897748,91.6270673 C53.2085607,90.423447 50.6660552,88.5857428 50.5801501,87.1244073 C50.4211545,84.4352461 52.2161435,86.3811623 53.3533179,87.4419238 C53.9200066,87.9692196 62.0368499,94.7115817 62.2513753,94.5535353 C62.7155475,94.2118135 61.3814084,93.2151247 61.4283951,93.2587892 C61.1630861,91.8824095 60.2148079,90.3968687 60.2053157,88.9939106 C59.0235276,88.2269349 59.7093444,86.5762285 58.8711766,85.8434249 C58.8550397,84.5026413 55.7040795,78.1300033 57.8944216,78.0037561 C61.1621369,82.5605221 62.2214746,88.1476744 65.0065077,92.8397053 C65.5812649,92.6009746 65.454543,87.3512726 65.5228874,86.7262064 C65.7269713,84.8581269 65.105702,80.0066258 66.3007792,78.7242196 C66.0107903,77.7773653 66.4327219,77.045511 67.3757792,77.8580497 C67.6368168,78.9126413 67.2651943,78.7066589 67.8670044,79.9686567 C67.7649625,80.1694183 67.631596,80.4323543 67.4811435,80.7294625 C67.8817174,82.7674536 67.1522362,85.0194956 67.6515298,86.9336126 C66.8233289,87.8529393 66.9495762,92.6992196 67.1750177,94.084617 C68.5841457,93.8857539 69.5129647,88.6925309 70.7925232,87.7855442 C70.8622914,86.3935022 72.2026004,84.4110408 72.8305143,83.1324316 C74.5339029,79.6639547 76.5994216,79.2368024 74.6516071,83.5548377 C73.8708675,85.2871777 73.1888477,87.1495618 72.3943444,88.9383808 C71.9121369,90.0233477 69.671011,93.4842307 70.1361325,94.4752241 C71.4503377,93.9313168 73.0426667,92.7666148 74.2216071,92.039032 C75.6791457,91.1405883 77.999532,89.7793962 79.095415,88.5249923 C80.7964305,88.2174426 81.6502605,86.3289547 83.6222804,86.8595728 C84.6811435,86.0750364 85.3489249,86.052255 85.3166512,87.4908091 C84.4229536,88.2188664 80.5216291,90.1401026 80.5363422,91.2350364 C79.6269823,91.6114051 77.4285717,92.6118907 77.2387263,93.5312174 C75.5187263,93.6147494 74.2273024,95.867266 72.4935386,96.0798929 C72.1655806,96.9579283 71.3060552,97.1131269 70.6425453,97.7476854 C72.1494437,98.175787 74.9757682,97.6570342 76.4190684,97.0362395 C76.5590795,97.12167 76.6867506,97.1999812 76.8134724,97.2778179 C78.0161435,96.9892528 81.6450397,96.837851 82.5496534,96.0243631 C83.1320044,96.2559746 83.6849294,96.0609084 84.2411766,95.9161512 C85.0342561,96.3385574 86.5890905,94.9906545 87.4334283,95.2758974 C89.51366,95.977851 86.8396865,96.8748709 85.88334,97.2127958 C83.9393223,97.8995618 80.7831413,97.6233366 79.1049073,98.6162285 C77.8879978,98.2783035 75.8191567,99.6883808 74.7669382,99.0386347 C73.9543996,100.289242 71.6866954,99.2023764 70.7778102,100.335279 C71.7763974,100.649948 72.9491678,100.968414 73.7180419,101.649959 C73.9335166,101.593006 74.1622804,101.53273 74.4233179,101.463911 C75.7669492,102.487652 86.6393996,105.043447 84.2411766,107.257994 C80.9369161,107.073844 77.9981082,105.161151 74.7365629,104.74539 C73.9795541,103.830334 70.2709227,103.414098 69.0834393,103.327244 C68.9961104,103.24561 68.8893223,103.144992 68.7849073,103.047222 C65.5499404,104.594462 67.6396645,107.737829 66.5575453,110.00316 C67.195426,113.159816 66.1664636,116.311251 66.9324901,119.349727 C66.493947,120.371571 67.3639139,122.019904 66.5461545,122.820577 C67.234819,123.877542 66.5817506,126.98816 66.4768609,128.249683 C66.3534614,129.732851 66.4925232,134.487531 65.2215077,135.550191 C65.9889581,138.427774 64.1251501,143.054308 63.6239581,145.993591 C63.350106,147.601582 62.991298,149.309716 62.6809007,150.85933 C62.3828433,152.347719 62.4782406,155.870776 61.2556358,156.914451 C61.3605254,161.761206 59.1298411,167.1438 58.2859779,171.885666 C57.7420706,174.940754 57.061,177.999164 56.2536821,181.001096 C55.6471258,183.256935 54.1815188,186.083734 54.528936,188.398425 C53.7429757,189.293546 53.1872031,191.745401 52.8146313,192.87071 C52.4045651,194.105655 51.9660221,195.691339 51.6205033,196.925809 C51.3390574,197.931041 50.3305033,205.519639 48.8544547,205.73986" id="Fill-4" fill="#0E135C"></path>
                            </g>
                        </g>
                    </g>
                </g>
            </g>
        </g>
    </g>
</svg>